<svg width="930" height="450" viewBox="0 0 930 450" fill="none" xmlns="http://www.w3.org/2000/svg">
<g id="Group 10291">
<g id="Background Complete">
<g id="Group" opacity="0.4">
<path id="Vector" opacity="0.9" d="M319.659 321.9C377.786 263.709 377.786 169.362 319.659 111.171C261.533 52.9801 167.29 52.9801 109.163 111.171C51.0362 169.362 51.0362 263.709 109.163 321.9C167.29 380.091 261.533 380.091 319.659 321.9Z" fill="#C8B0BE"/>
<path id="Vector_2" opacity="0.9" d="M269.959 304.948C264.858 297.945 256.714 293.857 248.613 290.767C233.189 284.893 216.867 281.704 201.476 275.633C186.085 269.562 171.252 259.896 163.841 245.091C154.339 226.187 158.948 203.655 162.101 182.735C165.253 161.814 165.702 137.639 150.716 122.713C140.94 112.96 125.735 109.398 112.402 112.949C109.709 113.669 107.094 114.657 104.597 115.897C83.7483 138.738 70.5173 167.508 66.7395 198.217C62.9617 228.926 68.8245 260.051 83.5145 287.273C98.2045 314.496 120.993 336.467 148.72 350.138C176.446 363.809 207.735 368.502 238.246 363.567C247.332 360.597 255.838 356.301 262.712 349.715C274.633 338.339 279.691 318.307 269.959 304.948Z" fill="#B29DAA"/>
<path id="Vector_3" opacity="0.4" d="M177.159 150.737C187.639 141.369 188.55 125.269 179.192 114.777C169.834 104.284 153.752 103.373 143.271 112.741C132.791 122.109 131.88 138.209 141.238 148.701C150.596 159.193 166.678 160.105 177.159 150.737Z" fill="#E0E0E0"/>
<path id="Vector_4" opacity="0.4" d="M208.365 332.041C223.294 327.153 231.438 311.075 226.556 296.13C221.674 281.185 205.613 273.032 190.685 277.919C175.756 282.807 167.612 298.885 172.494 313.83C177.376 328.775 193.436 336.929 208.365 332.041Z" fill="#E0E0E0"/>
<path id="Vector_5" opacity="0.4" d="M303.414 306.553C317.759 300.148 324.2 283.313 317.801 268.953C311.403 254.593 294.587 248.144 280.243 254.55C265.899 260.956 259.457 277.79 265.856 292.15C272.254 306.51 289.07 312.959 303.414 306.553Z" fill="#E0E0E0"/>
<path id="Vector_6" opacity="0.4" d="M215.057 153.956C218.894 148.065 217.235 140.175 211.35 136.333C205.466 132.491 197.585 134.153 193.747 140.043C189.91 145.934 191.569 153.824 197.454 157.666C203.338 161.508 211.219 159.846 215.057 153.956Z" fill="#E0E0E0"/>
<path id="Vector_7" opacity="0.4" d="M199.287 262.373C198.548 263.92 197.367 265.214 195.894 266.089C194.42 266.965 192.721 267.383 191.01 267.291C189.299 267.199 187.654 266.6 186.282 265.572C184.911 264.543 183.876 263.131 183.307 261.513C182.738 259.895 182.661 258.144 183.087 256.483C183.512 254.821 184.42 253.323 185.696 252.179C186.972 251.034 188.559 250.294 190.255 250.053C191.952 249.811 193.681 250.079 195.226 250.822C196.25 251.313 197.168 252.002 197.926 252.848C198.685 253.695 199.269 254.682 199.646 255.755C200.023 256.828 200.186 257.964 200.124 259.1C200.062 260.235 199.778 261.347 199.287 262.373Z" fill="#E0E0E0"/>
<path id="Vector_8" opacity="0.4" d="M129.654 262.208C129.005 263.565 127.968 264.697 126.675 265.464C125.382 266.23 123.892 266.596 122.392 266.514C120.891 266.432 119.449 265.907 118.247 265.005C117.045 264.103 116.137 262.864 115.638 261.445C115.139 260.027 115.072 258.492 115.444 257.035C115.817 255.577 116.612 254.264 117.73 253.259C118.849 252.255 120.239 251.605 121.726 251.391C123.214 251.178 124.731 251.411 126.086 252.06C127.891 252.945 129.277 254.505 129.945 256.403C130.612 258.301 130.508 260.386 129.654 262.208Z" fill="#E0E0E0"/>
<path id="Vector_9" opacity="0.4" d="M170.087 273.27C173.923 265.366 170.632 255.845 162.736 252.005C154.84 248.164 145.329 251.46 141.493 259.364C137.657 267.269 140.949 276.79 148.845 280.63C156.741 284.47 166.251 281.175 170.087 273.27Z" fill="#E0E0E0"/>
<path id="Vector_10" opacity="0.4" d="M177.159 150.737C187.639 141.369 188.55 125.269 179.192 114.777C169.834 104.284 153.752 103.373 143.271 112.741C132.791 122.109 131.88 138.209 141.238 148.701C150.596 159.193 166.678 160.105 177.159 150.737Z" fill="#D8CAD3"/>
<path id="Vector_11" opacity="0.4" d="M208.365 332.041C223.294 327.153 231.438 311.075 226.556 296.13C221.674 281.185 205.613 273.032 190.685 277.919C175.756 282.807 167.612 298.885 172.494 313.83C177.376 328.775 193.436 336.929 208.365 332.041Z" fill="#D8CAD3"/>
<path id="Vector_12" opacity="0.4" d="M303.414 306.553C317.759 300.148 324.2 283.313 317.801 268.953C311.403 254.593 294.587 248.144 280.243 254.55C265.899 260.956 259.457 277.79 265.856 292.15C272.254 306.51 289.07 312.959 303.414 306.553Z" fill="#D8CAD3"/>
<path id="Vector_13" opacity="0.4" d="M215.057 153.956C218.894 148.065 217.235 140.175 211.35 136.333C205.466 132.491 197.585 134.153 193.747 140.043C189.91 145.934 191.569 153.824 197.454 157.666C203.338 161.508 211.219 159.846 215.057 153.956Z" fill="#D8CAD3"/>
<path id="Vector_14" opacity="0.4" d="M199.287 262.373C198.548 263.92 197.367 265.214 195.894 266.089C194.42 266.965 192.721 267.383 191.01 267.291C189.299 267.199 187.654 266.6 186.282 265.572C184.911 264.543 183.876 263.131 183.307 261.513C182.738 259.895 182.661 258.144 183.087 256.483C183.512 254.821 184.42 253.323 185.696 252.179C186.972 251.034 188.559 250.294 190.255 250.053C191.952 249.811 193.681 250.079 195.226 250.822C196.25 251.313 197.168 252.002 197.926 252.848C198.685 253.695 199.269 254.682 199.646 255.755C200.023 256.828 200.186 257.964 200.124 259.1C200.062 260.235 199.778 261.347 199.287 262.373Z" fill="#D8CAD3"/>
<path id="Vector_15" opacity="0.4" d="M129.654 262.208C129.005 263.565 127.968 264.697 126.675 265.464C125.382 266.23 123.892 266.596 122.392 266.514C120.891 266.432 119.449 265.907 118.247 265.005C117.045 264.103 116.137 262.864 115.638 261.445C115.139 260.027 115.072 258.492 115.444 257.035C115.817 255.577 116.612 254.264 117.73 253.259C118.849 252.255 120.239 251.605 121.726 251.391C123.214 251.178 124.731 251.411 126.086 252.06C127.891 252.945 129.277 254.505 129.945 256.403C130.612 258.301 130.508 260.386 129.654 262.208Z" fill="#D8CAD3"/>
<path id="Vector_16" opacity="0.4" d="M170.087 273.27C173.923 265.366 170.632 255.845 162.736 252.005C154.84 248.164 145.329 251.46 141.493 259.364C137.657 267.269 140.949 276.79 148.845 280.63C156.741 284.47 166.251 281.175 170.087 273.27Z" fill="#D8CAD3"/>
</g>
<path id="Vector_17" opacity="0.4" d="M200.961 432.75H356.055C356.055 432.75 342.339 407.753 302.416 411.391C264.277 414.865 262.34 399.106 242.953 397.145C223.566 395.183 207.43 410.098 200.961 432.75Z" fill="#C8B0BE"/>
<path id="Vector_18" opacity="0.4" d="M0 91.4364H99.0574C99.0574 91.4364 90.3 75.4802 64.8049 77.7925C40.4483 79.9843 39.2114 69.946 26.8306 68.7076C14.4497 67.4693 4.12694 76.9706 0 91.4364Z" fill="#C8B0BE"/>
<path id="Vector_19" opacity="0.4" d="M43.2622 33.7051H189.467C189.467 33.7051 176.528 10.1545 138.904 13.5847C102.966 16.8723 101.138 1.99022 82.8567 0.160093C64.5756 -1.67003 49.3486 12.3573 43.2622 33.7051Z" fill="#C8B0BE"/>
<path id="Vector_20" opacity="0.4" d="M315.968 386.372H415.036C415.036 386.372 406.279 370.416 380.773 372.739C356.416 374.931 355.179 364.882 342.798 363.643C330.418 362.405 320.095 371.906 315.968 386.372Z" fill="#C8B0BE"/>
</g>
<g id="Character">
<path id="Vector_21" d="M126.186 143.823C126.273 143.954 106.607 157.328 82.2711 173.684C57.9348 190.04 38.1376 203.205 38.0501 203.074C37.9626 202.942 57.6176 189.579 81.9539 173.213C106.29 156.846 126.098 143.691 126.186 143.823Z" fill="#755BA4"/>
<path id="Vector_22" d="M132.727 390.748C132.814 390.879 113.148 404.253 88.8118 420.609C64.4755 436.965 44.6674 450.131 44.5799 449.999C44.4924 449.868 64.1583 436.504 88.4946 420.138C112.831 403.771 132.639 390.66 132.727 390.748Z" fill="#755BA4"/>
<path id="Vector_23" d="M153.005 101.563C153.093 101.684 141.696 110.267 127.553 120.725C113.411 131.183 101.861 139.547 101.762 139.427C101.664 139.306 113.061 130.723 127.214 120.265C141.368 109.807 152.907 101.431 153.005 101.563Z" fill="#755BA4"/>
<path id="Vector_24" d="M178.621 379.523C178.709 379.643 167.311 388.227 153.169 398.685C139.027 409.143 127.477 417.518 127.378 417.386C127.28 417.255 138.677 408.682 152.83 398.224C166.983 387.766 178.523 379.391 178.621 379.523Z" fill="#755BA4"/>
<path id="Vector_25" d="M364.769 158.26C364.868 158.392 353.471 166.964 339.328 177.422C325.186 187.88 313.625 196.255 313.537 196.124C313.45 195.992 324.836 187.42 338.989 176.962C353.142 166.504 364.682 158.128 364.769 158.26Z" fill="#755BA4"/>
<path id="Vector_26" d="M392.682 108.283C392.781 108.414 381.384 116.998 367.23 127.445C353.077 137.892 341.538 146.289 341.45 146.158C341.363 146.026 352.749 137.453 366.902 126.995C381.056 116.537 392.595 108.162 392.682 108.283Z" fill="#755BA4"/>
<path id="Vector_27" d="M251.061 160.244C251.061 160.244 258.291 218.87 225.063 260.538C191.834 302.206 104.201 348.872 95.7574 350.1C95.7574 350.1 121.177 329.074 90.387 319.296C59.5974 309.517 46.6363 296.999 46.7894 285.126C46.9425 273.254 76.4961 244.325 62.4631 230.501C48.4301 216.678 27.1672 212.534 17.2358 196.453C17.2358 196.453 49.6113 211.92 74.418 209.454C99.2246 206.987 190.806 182.816 209.629 150.992" fill="url(#paint0_linear_310_606)"/>
<path id="Vector_28" d="M96.917 281.75C96.917 281.75 97.0811 281.63 97.4311 281.465L98.9405 280.742L104.519 278.1C109.211 275.841 115.631 272.619 122.544 268.694C129.457 264.77 135.538 260.933 139.891 258.072L145.021 254.64L146.421 253.72C146.578 253.598 146.751 253.498 146.935 253.424C146.935 253.424 146.793 253.577 146.487 253.818L145.152 254.827C143.982 255.704 142.265 256.931 140.11 258.4C135.811 261.36 129.752 265.263 122.817 269.187C115.883 273.112 109.43 276.302 104.683 278.461C102.32 279.558 100.384 280.391 99.028 280.939L97.4748 281.564C97.2993 281.654 97.1112 281.717 96.917 281.75Z" fill="#263238"/>
<path id="Vector_29" d="M56.4473 273.945H56.6988L57.4535 273.879L60.3411 273.693C61.5989 273.638 63.1302 273.539 64.913 273.364C66.6959 273.188 68.7193 273.068 70.9397 272.761L74.4397 272.333C75.6538 272.18 76.9116 271.95 78.2132 271.763C80.8383 271.391 83.5946 270.831 86.5149 270.272C92.3228 269.056 98.6557 267.466 105.196 265.405C111.737 263.344 117.808 260.933 123.255 258.576C125.956 257.337 128.548 256.197 130.911 254.991C132.092 254.388 133.252 253.895 134.323 253.27L137.386 251.527C139.377 250.497 141.116 249.422 142.658 248.534C144.2 247.646 145.524 246.846 146.585 246.166L149.046 244.643L149.691 244.259C149.844 244.182 149.921 244.138 149.932 244.149L149.724 244.314L149.111 244.741L146.705 246.353C145.611 247.054 144.364 247.899 142.822 248.808C141.28 249.718 139.541 250.814 137.583 251.878L134.488 253.599C133.394 254.191 132.3 254.695 131.075 255.342C128.734 256.581 126.153 257.743 123.419 258.992C117.504 261.594 111.463 263.896 105.317 265.888C99.15 267.817 92.8892 269.431 86.5587 270.722C83.6383 271.27 80.8601 271.818 78.2351 272.158C76.9226 272.344 75.6647 272.564 74.4397 272.706L70.9287 273.09C68.7412 273.375 66.6631 273.473 64.8802 273.616C63.0974 273.758 61.5989 273.824 60.2973 273.857L57.3988 273.934H56.6551C56.5867 273.948 56.5167 273.951 56.4473 273.945Z" fill="#263238"/>
<path id="Vector_30" d="M61.708 220.35C61.9881 220.324 62.2701 220.324 62.5502 220.35L64.9893 220.46C66.0831 220.515 67.33 220.58 68.8284 220.613C70.3269 220.646 72.0441 220.734 73.9254 220.734C77.6989 220.789 82.2052 220.734 87.1818 220.515C92.1585 220.295 97.6492 219.846 103.37 219.166C109.09 218.487 114.504 217.566 119.404 216.623C124.304 215.68 128.679 214.639 132.333 213.674C134.17 213.236 135.811 212.742 137.254 212.348C138.698 211.953 139.945 211.591 140.951 211.252L143.292 210.572C143.561 210.475 143.84 210.409 144.123 210.375C143.863 210.492 143.597 210.594 143.325 210.682L141.017 211.46C140.022 211.8 138.83 212.205 137.342 212.622C135.854 213.038 134.268 213.565 132.442 214.036C128.789 215.045 124.403 216.097 119.503 217.105C114.603 218.114 109.167 219.024 103.479 219.736C97.7914 220.449 92.2569 220.833 87.2584 221.041C82.2599 221.249 77.7426 221.249 73.9691 221.129C72.0769 221.129 70.3597 220.997 68.8613 220.931C67.3628 220.865 66.0721 220.767 65.0221 220.679L62.594 220.471C62.2962 220.451 62.0002 220.411 61.708 220.35Z" fill="#263238"/>
<g id="Group_2" opacity="0.4">
<path id="Vector_31" opacity="0.4" d="M195.356 164.859C171.293 197.329 132.552 223.332 92.2247 223.957C85.4981 224.056 78.1479 223.957 72.876 228.112C69.1025 231.126 72.001 241.738 67.8337 250.54C62.5946 261.634 62.5946 262.599 54.9382 272.717C51.2194 277.606 48.1131 283.855 49.7209 289.774C51.6241 296.79 58.3617 301.175 64.5852 304.902L99.7608 325.972C104.322 328.702 109.102 331.453 114.406 331.924C121.155 332.44 127.532 329.008 133.318 325.49C187.184 292.497 228.995 242.968 252.538 184.262" fill="url(#paint1_linear_310_606)"/>
</g>
<path id="Vector_32" d="M327.636 97.2C327.636 97.2 329.419 87.2133 330.261 86.3144L346.82 89.8662L340.433 102.637L327.636 97.2Z" fill="#FFBE9D"/>
<path id="Vector_33" d="M346.547 90.9297C346.547 90.9297 346.547 91.0722 346.46 91.2476C345.88 92.7275 342.599 98.8116 341.713 98.68C340.827 98.5485 338.891 96.9699 339.164 96.082C339.438 95.194 343.539 88.5618 343.539 88.5618C343.539 88.5618 344.261 87.5533 346.219 88.2439C347.39 88.6714 346.547 90.9297 346.547 90.9297Z" fill="#FFBE9D"/>
<path id="Vector_34" d="M344.032 86.8079C344.022 86.9184 343.993 87.0262 343.944 87.1258C343.364 88.6057 340.083 94.6898 339.197 94.5582C338.311 94.4267 336.364 92.8481 336.649 91.9602C336.933 91.0722 341.024 84.44 341.024 84.44C341.024 84.44 341.735 83.4315 343.693 84.1221C344.885 84.5496 344.032 86.8079 344.032 86.8079Z" fill="#FFBE9D"/>
<path id="Vector_35" d="M341.013 83.8042C341.013 83.8042 341.013 83.9357 340.925 84.1221C340.345 85.602 337.064 91.6751 336.178 91.5545C335.292 91.4339 333.356 89.8334 333.63 88.9455C333.903 88.0575 338.005 81.4254 338.005 81.4254C338.005 81.4254 338.716 80.4168 340.674 81.1074C341.92 81.6117 341.013 83.8042 341.013 83.8042Z" fill="#FFBE9D"/>
<path id="Vector_36" d="M337.983 80.9321C337.983 80.9321 337.983 81.0746 337.895 81.25C337.316 82.7299 334.034 88.8139 333.148 88.6824C332.262 88.5508 330.327 86.9613 330.6 86.0843C330.873 85.2074 334.975 78.5642 334.975 78.5642C334.975 78.5642 335.686 77.5557 337.644 78.2354C338.847 78.6629 337.983 80.9321 337.983 80.9321Z" fill="#FFBE9D"/>
<path id="Vector_37" d="M340.072 94.2739C340.803 93.4237 341.424 92.4844 341.921 91.4782C342.529 90.5436 343.015 89.5338 343.365 88.4741C342.635 89.3394 342.018 90.2935 341.527 91.3137C340.918 92.2343 340.429 93.2291 340.072 94.2739Z" fill="#EB996E"/>
<path id="Vector_38" d="M336.452 92.4095C337.427 91.141 338.281 89.7829 339.001 88.3534C339.861 86.9999 340.594 85.5685 341.188 84.0782C340.214 85.367 339.361 86.7431 338.64 88.189C337.792 89.531 337.06 90.9429 336.452 92.4095Z" fill="#EB996E"/>
<g id="Group_3" opacity="0.78">
<path id="Vector_39" opacity="0.78" d="M332.951 90.1952C333.917 88.9165 334.77 87.5557 335.5 86.1282C336.35 84.7687 337.082 83.3383 337.687 81.8529C336.714 83.1264 335.86 84.4879 335.139 85.9199C334.273 87.2707 333.541 88.7025 332.951 90.1952Z" fill="#EB996E"/>
</g>
<path id="Vector_40" d="M329.474 98.8005L328.577 93.1549C328.185 90.6889 328.761 88.1665 330.184 86.1172L331.278 84.5496L343.014 91.4777C343.014 91.4777 339.733 95.2268 336.846 92.6945L338.749 97.6385L329.474 98.8005Z" fill="#FFBE9D"/>
<path id="Vector_41" d="M337.546 98.0551C337.575 97.4781 337.575 96.9 337.546 96.3231C337.42 94.8051 336.739 93.3874 335.632 92.3438L334.691 91.4668L335.883 91.9491L338.946 93.1769H338.891C339.577 93.3439 340.295 93.312 340.964 93.0849C341.632 92.8578 342.222 92.4448 342.665 91.8943C342.727 91.8039 342.782 91.7085 342.829 91.6093L342.96 91.971C339.569 90.1513 336.529 88.4741 334.407 87.1257C333.313 86.457 332.503 85.8979 331.924 85.4923C331.615 85.3036 331.331 85.0751 331.082 84.8127C332.289 85.4086 333.465 86.0672 334.603 86.7859C336.791 88.0356 339.832 89.658 343.233 91.4777L343.463 91.5983L343.354 91.8395C343.29 91.9688 343.217 92.0933 343.135 92.2122C342.642 92.9093 341.923 93.4131 341.1 93.6373C340.35 93.8312 339.566 93.8573 338.804 93.714H338.749L335.697 92.4205L335.949 92.0259C337.113 93.16 337.784 94.7075 337.819 96.334C337.834 96.7764 337.79 97.2188 337.688 97.6495C337.666 97.8578 337.6 98.0551 337.546 98.0551Z" fill="#EB996E"/>
<path id="Vector_42" d="M341.002 93.2102C341.111 93.2102 340.816 93.8351 341.089 94.7122C341.152 94.9384 341.286 95.1383 341.471 95.2824C341.656 95.4265 341.883 95.5072 342.117 95.5126C342.424 95.4652 342.717 95.3501 342.974 95.1757C343.231 95.0013 343.447 94.7718 343.605 94.5039C344.469 93.2979 345.322 92.2345 345.792 91.4341C346.263 90.6338 346.613 90.0856 346.689 90.1185C346.632 90.6597 346.444 91.1789 346.142 91.6315C345.504 92.7465 344.795 93.8194 344.02 94.8438C343.814 95.1814 343.531 95.4654 343.195 95.6731C342.858 95.8807 342.478 96.006 342.084 96.0388C341.899 96.0394 341.716 96.0029 341.545 95.9313C341.374 95.8598 341.219 95.7547 341.089 95.6222C340.875 95.4008 340.727 95.1235 340.662 94.8219C340.567 94.4147 340.59 93.9886 340.728 93.5939C340.881 93.3198 340.969 93.1993 341.002 93.2102Z" fill="#EB996E"/>
<path id="Vector_43" d="M231.374 117.162C231.449 117.541 231.411 117.934 231.265 118.291C231.12 118.649 230.873 118.956 230.555 119.174C230.237 119.392 229.862 119.512 229.477 119.519C229.092 119.526 228.713 119.419 228.388 119.212C227.163 118.434 227.174 116.625 227.567 115.222C227.961 113.819 228.606 112.339 228.136 110.958C227.631 109.964 226.962 109.063 226.156 108.294C225.546 107.536 225.12 106.646 224.911 105.695C224.703 104.744 224.717 103.757 224.953 102.813C225.21 101.872 225.722 101.021 226.432 100.356C227.143 99.6896 228.025 99.2348 228.978 99.0417C230.925 98.6909 233.2 99.5131 234.753 98.2744C235.847 97.3754 236.099 95.753 237.017 94.6349C238.428 92.9138 241.053 92.8809 243.219 93.3961C245.385 93.9114 248.382 97.5509 250.591 97.222C252.429 96.9589 253.205 93.144 254.966 92.5411C256.89 91.8767 258.974 91.8327 260.924 92.4152C262.874 92.9977 264.594 94.1776 265.841 95.7892C267.088 97.4009 267.801 99.3634 267.879 101.402C267.957 103.44 267.396 105.451 266.276 107.154C265.533 108.409 264.37 109.361 262.994 109.84" fill="url(#paint2_linear_310_606)"/>
<path id="Vector_44" d="M227.775 154.96L248.775 156.517C249.278 154.105 250.558 144.7 250.558 144.7C250.558 144.7 259.385 144.7 260.828 136.061C262.272 127.423 263.847 107.34 263.847 107.34C259.268 104.469 254.008 102.875 248.61 102.721C243.211 102.566 237.869 103.858 233.134 106.463L231.702 107.252L227.775 154.96Z" fill="#FFBE9D"/>
<path id="Vector_45" d="M258.193 121.164C258.035 120.969 257.938 120.731 257.914 120.48C257.891 120.229 257.942 119.978 258.062 119.756C258.181 119.535 258.364 119.354 258.586 119.237C258.808 119.119 259.059 119.071 259.309 119.097C259.559 119.123 259.795 119.223 259.988 119.383C260.181 119.544 260.323 119.759 260.394 120C260.465 120.241 260.464 120.498 260.389 120.739C260.315 120.979 260.171 121.192 259.976 121.35C259.715 121.562 259.38 121.662 259.046 121.627C258.712 121.592 258.405 121.425 258.193 121.164Z" fill="#263238"/>
<path id="Vector_46" d="M261.966 120.243C261.802 120.375 261.058 119.596 259.866 119.399C258.674 119.201 257.679 119.695 257.613 119.519C257.547 119.344 257.744 119.19 258.16 118.96C258.725 118.677 259.365 118.581 259.988 118.685C260.611 118.79 261.185 119.089 261.627 119.541C261.955 119.903 262.075 120.188 261.966 120.243Z" fill="#263238"/>
<path id="Vector_47" d="M247.102 118.489C247.294 118.652 247.433 118.868 247.502 119.11C247.571 119.352 247.567 119.609 247.49 119.849C247.413 120.089 247.267 120.3 247.07 120.457C246.873 120.613 246.634 120.707 246.383 120.727C246.133 120.747 245.882 120.692 245.663 120.569C245.443 120.446 245.266 120.261 245.152 120.036C245.038 119.812 244.993 119.558 245.023 119.308C245.053 119.058 245.156 118.823 245.319 118.631C245.427 118.504 245.558 118.399 245.706 118.323C245.854 118.246 246.015 118.2 246.181 118.187C246.347 118.174 246.514 118.194 246.672 118.245C246.83 118.297 246.976 118.38 247.102 118.489Z" fill="#263238"/>
<path id="Vector_48" d="M248.95 119.092C248.797 119.234 247.988 118.522 246.763 118.445C245.538 118.368 244.652 118.938 244.575 118.774C244.499 118.609 244.663 118.434 245.068 118.171C245.601 117.829 246.231 117.671 246.861 117.721C247.491 117.765 248.089 118.011 248.568 118.423C248.95 118.741 249.038 119.026 248.95 119.092Z" fill="#263238"/>
<path id="Vector_49" d="M252.144 129.846C252.792 129.691 253.463 129.654 254.124 129.736C254.441 129.736 254.692 129.736 254.747 129.55C254.798 129.24 254.768 128.923 254.66 128.629L254.091 126.064C253.325 122.413 252.855 119.421 252.997 119.388C253.139 119.355 253.949 122.271 254.714 125.965C254.9 126.853 255.064 127.697 255.228 128.541C255.376 128.967 255.376 129.431 255.228 129.857C255.166 129.969 255.078 130.066 254.972 130.138C254.865 130.211 254.743 130.257 254.616 130.273C254.435 130.301 254.25 130.301 254.069 130.273C253.407 130.246 252.755 130.101 252.144 129.846Z" fill="#263238"/>
<path id="Vector_50" d="M248.075 130.569C249.806 131.686 251.678 132.564 253.643 133.179C253.146 133.748 252.47 134.128 251.727 134.256C250.984 134.383 250.22 134.251 249.563 133.88C247.124 132.532 248.075 130.569 248.075 130.569Z" fill="white"/>
<path id="Vector_51" d="M250.591 144.568C246.596 144.03 242.852 142.309 239.839 139.624C239.839 139.624 241.535 146.256 250.263 146.815L250.591 144.568Z" fill="#EB996E"/>
<path id="Vector_52" d="M263.683 109.544C263.683 109.544 258.214 111.736 251.575 107.691C247.2 105.071 242.049 103.536 240.813 104.402C239.577 105.268 238.964 109.883 234.37 110.881C234.37 110.881 233.966 119.815 230.455 119.212C226.944 118.609 230.247 104.961 230.247 104.961L239.259 101.41L248.863 100.379L257.678 102.352L264.427 104.797L263.683 109.544Z" fill="url(#paint3_linear_310_606)"/>
<path id="Vector_53" d="M231.384 116.373C231.242 116.285 225.729 113.698 224.997 119.662C224.264 125.625 230.378 125.143 230.411 124.935C230.443 124.726 231.384 116.373 231.384 116.373Z" fill="#FFBE9D"/>
<path id="Vector_54" d="M228.869 122.436C228.869 122.436 228.759 122.502 228.573 122.556C228.314 122.627 228.037 122.6 227.797 122.48C227.447 122.187 227.18 121.807 227.022 121.377C226.865 120.948 226.823 120.485 226.9 120.035C226.952 119.524 227.112 119.031 227.37 118.588C227.449 118.409 227.57 118.252 227.722 118.129C227.874 118.007 228.054 117.924 228.245 117.886C228.367 117.87 228.491 117.897 228.595 117.963C228.699 118.029 228.777 118.13 228.814 118.248C228.88 118.423 228.814 118.544 228.814 118.555C228.814 118.566 228.956 118.467 228.934 118.215C228.917 118.066 228.852 117.928 228.748 117.82C228.599 117.676 228.398 117.597 228.191 117.601C227.941 117.617 227.699 117.699 227.49 117.837C227.281 117.976 227.112 118.166 226.998 118.39C226.685 118.874 226.494 119.427 226.441 120.002C226.349 120.526 226.413 121.065 226.625 121.552C226.837 122.04 227.188 122.454 227.633 122.743C227.783 122.816 227.947 122.855 228.114 122.855C228.281 122.855 228.445 122.816 228.595 122.743C228.847 122.578 228.891 122.458 228.869 122.436Z" fill="#EB996E"/>
<path id="Vector_55" d="M230.214 97.4303C230.214 97.6167 231.111 97.6715 232.052 98.1429C232.992 98.6143 233.583 99.2392 233.736 99.1734C233.889 99.1076 233.474 98.0771 232.347 97.5509C231.22 97.0246 230.17 97.2549 230.214 97.4303Z" fill="url(#paint4_linear_310_606)"/>
<path id="Vector_56" d="M234.141 94.2182C233.617 95.0453 233.403 96.0326 233.54 97.003C233.54 98.6586 234.447 99.7659 234.633 99.6563C234.819 99.5466 234.283 98.4503 234.24 96.9701C234.196 95.49 234.338 94.2621 234.141 94.2182Z" fill="url(#paint5_linear_310_606)"/>
<path id="Vector_57" d="M256.486 117.404C256.618 117.755 257.788 117.634 259.155 117.798C260.522 117.963 261.649 118.314 261.857 117.996C262.065 117.678 261.026 116.669 259.297 116.483C257.569 116.296 256.333 117.086 256.486 117.404Z" fill="#263238"/>
<path id="Vector_58" d="M243.416 114.247C243.547 114.597 244.728 114.466 246.096 114.63C247.463 114.795 248.589 115.146 248.786 114.839C248.983 114.532 247.955 113.501 246.238 113.326C244.521 113.15 243.274 113.918 243.416 114.247Z" fill="#263238"/>
<path id="Vector_59" d="M206.096 243.503L177.407 225.218C165.977 243.974 173.207 262.051 173.382 285.105L173.185 300.934L96.4023 309.035L97.3211 330.554L189.296 329.217C194.222 328.955 198.858 326.802 202.243 323.206C205.628 319.609 207.501 314.845 207.474 309.901C207.343 283.833 208.984 245.958 209.389 247.811" fill="url(#paint6_linear_310_606)"/>
<path id="Vector_60" d="M228.989 143.559C228.989 143.559 221.453 138.078 211.663 144.25C201.874 150.422 176.138 197.965 176.138 197.965L156.297 214.803L207.441 250.979C207.441 250.979 247.911 200.202 251.192 192.418L253.916 155.914L228.989 143.559Z" fill="url(#paint7_linear_310_606)"/>
<path id="Vector_61" d="M253.303 155.892L291.618 132.773L327.209 95.775L340.433 102.637L303.201 156.725L250.591 192.397L253.303 155.892Z" fill="url(#paint8_linear_310_606)"/>
<path id="Vector_62" d="M91.9185 307.435L144.244 303.488L143.949 320.754L162.871 332.111L99.4327 329.644C99.4327 329.644 94.631 347.765 93.4279 344.992C92.2247 342.218 91.9185 307.435 91.9185 307.435Z" fill="url(#paint9_linear_310_606)"/>
<path id="Vector_63" d="M153.508 214.376C153.508 214.376 172.015 220.591 178.774 231.302C179.85 233.05 180.525 235.016 180.752 237.057C180.979 239.099 180.752 241.165 180.087 243.108L175.22 254.892C175.22 254.892 197.193 242.253 209.225 250.705L214.125 242.505L162.083 207.338C162.083 207.338 155.98 210.046 153.508 214.376Z" fill="url(#paint10_linear_310_606)"/>
<path id="Vector_64" d="M154 213.082L107.657 298.774L47.2812 344.432L57.1251 362.969L114.099 330.51C124.293 325.862 134.312 318.452 140.547 309.112L154.099 288.865L178.424 248.71C184.363 239.458 181.443 230.754 172.441 224.472L154 213.082Z" fill="url(#paint11_linear_310_606)"/>
<path id="Vector_65" d="M35.9282 350.9L76.9117 319.559L85.7931 331.003L110.895 333.196L54.9707 364.438C54.9707 364.438 61.7193 381.923 59.1052 380.367C56.491 378.81 35.9282 350.9 35.9282 350.9Z" fill="url(#paint12_linear_310_606)"/>
<path id="Vector_66" d="M246.632 95.4242C248.13 96.2025 251.28 96.3121 252.648 94.9857C253.052 94.4744 253.309 93.8616 253.39 93.214C253.471 92.5663 253.373 91.9089 253.107 91.3133C252.724 90.6117 251.926 90.2938 251.948 89.4826C251.948 88.8796 252.79 88.3863 253.293 88.1013C253.816 87.7949 254.397 87.6008 254.999 87.5313C258.107 86.9912 261.304 87.6071 263.99 89.2633C265.313 90.1016 266.444 91.2108 267.31 92.5182C268.175 93.8256 268.754 95.3015 269.01 96.8493C269.47 99.9407 268.846 104.611 266.538 106.715C264.231 108.82 260.26 108.228 257.351 107.11" fill="url(#paint13_linear_310_606)"/>
<path id="Vector_67" d="M257.11 87.5314C256.199 87.259 255.242 87.1806 254.299 87.3012C253.35 87.4333 252.48 87.9044 251.849 88.6278C251.39 89.1759 251.127 89.8666 250.635 90.3819C250.418 90.6302 250.148 90.8262 249.845 90.9553C249.542 91.0844 249.214 91.1432 248.885 91.1275C248.555 91.1014 248.244 90.9668 247.998 90.7448C247.753 90.5227 247.588 90.2255 247.529 89.8995C247.509 89.7414 247.522 89.5808 247.567 89.428C247.613 89.2752 247.689 89.1335 247.792 89.0118C247.895 88.8902 248.022 88.7913 248.165 88.7214C248.308 88.6516 248.464 88.6122 248.622 88.6058C248.717 88.6168 248.812 88.6168 248.907 88.6058C249.005 88.6058 249.082 88.4633 249.038 88.3756C249.013 88.3451 248.981 88.3211 248.945 88.3058C248.909 88.2905 248.869 88.2844 248.83 88.2879C248.351 88.2789 247.881 88.4154 247.48 88.6796C247.08 88.9438 246.769 89.3232 246.588 89.768C246.423 90.2197 246.383 90.7076 246.472 91.1803C246.56 91.653 246.774 92.093 247.091 92.4541C247.412 92.8101 247.812 93.0859 248.258 93.2591C248.704 93.4324 249.185 93.4984 249.662 93.4517C250.621 93.3439 251.498 92.8589 252.101 92.1032C252.489 91.4897 252.928 90.9102 253.413 90.371C253.707 90.1337 254.05 89.9636 254.416 89.8727C254.783 89.7818 255.164 89.7722 255.535 89.8447C256.282 89.9905 256.946 90.4134 257.394 91.0288C257.591 91.2919 257.799 91.6099 258.116 91.6208" fill="url(#paint14_linear_310_606)"/>
<path id="Vector_68" d="M313.734 109.774L317.584 128.53L326.116 123.444L340.433 102.637L327.21 95.775L313.734 109.774Z" fill="url(#paint15_linear_310_606)"/>
<path id="Vector_69" d="M247.944 89.088C247.818 89.1422 247.697 89.2083 247.583 89.2853C247.439 89.4236 247.335 89.5988 247.283 89.7921C247.231 89.9853 247.232 90.1892 247.288 90.3815C247.373 90.6773 247.558 90.9343 247.811 91.1083C248.065 91.2823 248.371 91.3625 248.677 91.3352C249.532 91.2963 250.358 91.0066 251.05 90.5021C251.86 89.9869 252.669 89.2743 253.61 88.5727C254.605 87.734 255.854 87.2552 257.153 87.2134C257.87 87.2702 258.568 87.4679 259.208 87.7952C259.848 88.1225 260.417 88.5729 260.883 89.1208C261.908 90.2441 262.657 91.5917 263.071 93.0563C263.886 95.8783 263.58 98.9069 262.218 101.508C261.246 103.234 259.83 104.667 258.118 105.658C256.406 106.649 254.46 107.162 252.483 107.143C252.054 107.136 251.625 107.092 251.203 107.011C250.919 107.011 250.766 106.924 250.777 106.902C250.788 106.88 251.389 106.902 252.472 106.902C254.012 106.846 255.523 106.472 256.913 105.805C258.973 104.843 260.669 103.24 261.747 101.234C263.019 98.7491 263.297 95.8712 262.524 93.1878C262.15 91.8127 261.461 90.544 260.511 89.4826C259.69 88.4872 258.512 87.8537 257.23 87.7177C256.031 87.7448 254.876 88.1731 253.949 88.9345C253.03 89.6032 252.188 90.3157 251.324 90.831C250.555 91.3515 249.648 91.6302 248.721 91.6312C248.353 91.6467 247.991 91.5307 247.701 91.3038C247.41 91.0769 247.209 90.7539 247.135 90.3925C247.092 90.169 247.11 89.9382 247.187 89.7241C247.264 89.5101 247.397 89.3207 247.572 89.1756C247.682 89.1043 247.814 89.0733 247.944 89.088Z" fill="#263238"/>
<path id="Vector_70" d="M263.695 101.651C263.6 102.287 263.356 102.892 262.984 103.416C262.195 104.748 261.138 105.901 259.88 106.801C258.622 107.701 257.191 108.329 255.677 108.645C255.062 108.819 254.416 108.857 253.785 108.754C255.835 108.303 257.788 107.487 259.549 106.343C261.206 105.046 262.611 103.456 263.695 101.651Z" fill="#263238"/>
<path id="Vector_71" d="M165.222 209.114L164.905 205.935L165.047 205.749H164.883L163.866 170.527L198.32 165.046L222.962 141.367C222.962 141.367 211.948 137.168 205.003 138.155C180.94 141.564 146.803 151.924 145.414 155.629C143.457 160.88 147.175 191.936 147.941 201.605C148.291 206.066 147.132 209.41 147.624 211.537C145.8 210.114 143.89 208.807 141.903 207.623C139.902 206.582 143.478 212.885 144.419 214.332C144.791 214.902 146.486 215.132 148.499 215.187H149.68C151.876 215.187 154.068 215.033 156.243 214.727C156.888 214.595 158.638 212.841 160.41 210.923L165.222 209.114Z" fill="url(#paint16_linear_310_606)"/>
<path id="Vector_72" d="M164.73 199.61L147.963 201.671L147.536 211.131L147.646 211.602C145.822 210.18 143.912 208.872 141.925 207.689C139.924 206.647 143.5 212.951 144.441 214.398C144.813 214.968 146.508 215.198 148.521 215.253H149.702C151.898 215.253 154.09 215.099 156.265 214.792C156.91 214.661 158.66 212.907 160.432 210.988L165.19 209.103L164.73 199.61Z" fill="#FFBE9D"/>
<path id="Vector_73" d="M147.941 201.671L164.708 199.61L164.129 179.516L155.619 167.984L146.147 182.815L147.941 201.671Z" fill="url(#paint17_linear_310_606)"/>
<path id="Vector_74" d="M163.473 273.134C164.078 271.996 164.754 270.898 165.496 269.845L170.56 261.963C172.551 258.894 174.356 256.12 175.69 254.136C176.363 253.025 177.124 251.969 177.965 250.979C177.398 252.148 176.751 253.276 176.029 254.355C174.782 256.394 173.021 259.201 171.042 262.281C169.062 265.361 167.202 268.102 165.824 270.064C165.135 271.051 164.566 271.829 164.162 272.366C163.967 272.651 163.735 272.909 163.473 273.134Z" fill="#263238"/>
<path id="Vector_75" d="M179.54 310.646C177.707 309.68 176.16 308.247 175.056 306.492C173.793 304.844 172.992 302.887 172.737 300.824C173.531 302.672 174.464 304.456 175.526 306.163C176.751 307.755 178.093 309.254 179.54 310.646Z" fill="#263238"/>
<path id="Vector_76" d="M256.946 174.32C256.977 174.549 256.977 174.781 256.946 175.01C256.946 175.46 256.946 176.107 256.793 176.994C256.466 179.41 255.909 181.789 255.13 184.098C253.932 187.508 252.393 190.788 250.537 193.887C248.263 197.685 245.769 201.346 243.066 204.85C237.346 212.282 232.128 218.936 228.289 223.76L223.794 229.405L222.547 230.929C222.407 231.115 222.25 231.288 222.077 231.444C222.077 231.444 222.186 231.225 222.449 230.863C222.711 230.501 223.149 229.92 223.619 229.263L227.994 223.464L242.629 204.455C245.317 200.984 247.814 197.368 250.11 193.624C251.971 190.56 253.531 187.322 254.769 183.955C255.582 181.689 256.197 179.356 256.607 176.983C256.749 176.139 256.793 175.471 256.869 175.021C256.871 174.785 256.896 174.55 256.946 174.32Z" fill="#263238"/>
<path id="Vector_77" d="M207.201 183.681C206.021 182.025 204.996 180.264 204.139 178.42C203.113 176.677 202.252 174.842 201.568 172.938C202.75 174.596 203.778 176.357 204.642 178.2C205.666 179.942 206.523 181.777 207.201 183.681Z" fill="#263238"/>
<path id="Vector_78" d="M244.072 199.511C240.448 199.581 236.827 199.276 233.266 198.601C236.89 198.517 240.513 198.822 244.072 199.511Z" fill="#263238"/>
<path id="Vector_79" d="M210.57 139.789C210.57 139.789 210.69 139.789 210.909 139.898C211.226 140.048 211.511 140.256 211.751 140.512C212.611 141.477 213.116 142.706 213.184 143.998C213.372 148.195 212.257 152.347 209.99 155.881C207.751 159.431 204.501 162.226 200.66 163.905C199.513 164.41 198.319 164.8 197.095 165.067C196.651 165.201 196.191 165.267 195.728 165.265C197.354 164.795 198.947 164.216 200.496 163.533C204.192 161.795 207.318 159.038 209.509 155.585C211.705 152.138 212.846 148.121 212.79 144.031C212.762 142.807 212.344 141.624 211.598 140.655C211.284 140.333 210.94 140.043 210.57 139.789Z" fill="#263238"/>
<path id="Vector_80" d="M214.136 242.505L216.903 238.986L168.646 204.345L160.465 210.999L214.136 242.505Z" fill="url(#paint18_linear_310_606)"/>
<g id="Group_4" opacity="0.4">
<path id="Vector_81" opacity="0.4" d="M143.642 195.543C143.107 195.881 142.544 196.171 141.958 196.409C140.864 196.935 139.245 197.647 137.243 198.502C133.24 200.213 127.618 202.394 121.296 204.455C114.974 206.516 109.145 208.04 104.89 209.026C102.768 209.508 101.04 209.87 99.8366 210.122C99.2204 210.262 98.5956 210.361 97.9663 210.418C98.5606 210.198 99.1714 210.026 99.7929 209.903L104.791 208.653C109.002 207.557 114.799 205.979 121.11 203.929C127.421 201.879 133.043 199.763 137.079 198.152L141.859 196.222C142.438 195.956 143.033 195.729 143.642 195.543Z" fill="white"/>
</g>
<g id="Group_5" opacity="0.4">
<path id="Vector_82" opacity="0.4" d="M90.1351 210.769C89.9468 210.846 89.753 210.908 89.5554 210.956L87.8601 211.394C87.1163 211.591 86.2194 211.811 85.1475 211.997C84.0756 212.183 82.8834 212.468 81.5271 212.633C80.1709 212.797 78.7052 213.039 77.1521 213.148C75.5989 213.258 73.8708 213.378 72.0442 213.455C68.1311 213.526 64.2177 213.336 60.3299 212.885C56.4366 212.397 52.5812 211.643 48.7907 210.627C47.0625 210.122 45.411 209.662 43.9016 209.114C42.3922 208.566 40.9921 208.018 39.7343 207.546C38.4765 207.075 37.3499 206.505 36.3655 206.066C35.3811 205.628 34.5498 205.2 33.8826 204.828L32.3404 203.994C32.1514 203.909 31.9748 203.798 31.8154 203.666C32.0154 203.724 32.2094 203.801 32.3951 203.896L33.9811 204.63C34.6592 204.97 35.5014 205.365 36.4968 205.727C37.4921 206.088 38.5968 206.669 39.8765 207.119C41.1562 207.568 42.5343 208.138 44.0547 208.621C45.575 209.103 47.2047 209.585 48.9219 210.079C52.6874 211.042 56.5081 211.775 60.3628 212.271C64.2219 212.716 68.1051 212.917 71.9895 212.874C73.7723 212.808 75.4786 212.775 77.0646 212.622C78.6505 212.468 80.1271 212.348 81.4396 212.172C82.7522 211.997 83.9991 211.8 85.06 211.635C86.121 211.471 87.0397 211.284 87.7726 211.131L89.4898 210.791C89.7023 210.749 89.9202 210.741 90.1351 210.769Z" fill="white"/>
</g>
<g id="Group_6" opacity="0.4">
<path id="Vector_83" opacity="0.4" d="M173.689 185.172C173.754 185.315 173.032 185.786 172.092 186.214C171.151 186.641 170.32 186.882 170.254 186.74C170.189 186.597 170.91 186.126 171.851 185.644C172.792 185.161 173.623 185.03 173.689 185.172Z" fill="white"/>
</g>
<g id="Group_7">
<path id="Vector_84" d="M238.133 167.392C237.884 166.397 237.276 165.53 236.427 164.958C233.867 163.489 228.475 166.186 226.025 170.439C225.783 170.862 225.571 171.302 225.391 171.755C223.859 175.537 225.117 178.99 227.578 180.393C230.302 181.96 234.491 180.985 236.941 176.71C238.526 173.875 238.953 170.535 238.133 167.392Z" fill="white"/>
</g>
</g>
<g id="&#208;&#161;&#208;&#162;&#208;&#144;&#208;&#157;&#208;&#172; &#208;&#167;&#208;&#144;&#208;&#161;&#208;&#162;&#208;&#172;&#208;&#174; &#208;&#154;&#208;&#158;&#208;&#156;&#208;&#144;&#208;&#157;&#208;&#148;&#208;&#171; &#208;&#156;&#208;&#147;&#208;&#162;&#208;&#161;">
<path d="M349.506 219.149C360.187 219.149 366.607 215.049 367.867 204.616H357.546C356.706 209.682 353.886 211.129 349.506 211.129C343.865 211.129 340.805 208.415 340.805 200.576V194.425C340.805 186.525 344.045 183.993 349.506 183.993C354.066 183.993 356.886 185.561 357.486 190.505H367.807C366.607 179.952 360.307 175.972 349.506 175.972C337.265 175.972 330.484 182.123 330.484 197.44C330.484 213.179 337.265 219.149 349.506 219.149Z" fill="#201E1E"/>
<path d="M405.451 185.259V176.756H370.828V185.259H383.129V218.365H393.15V185.259H405.451Z" fill="#201E1E"/>
<path d="M416.536 176.756L403.515 218.365H412.696L415.516 209.199H431.237L434.177 218.365H444.678L431.237 176.756H416.536ZM423.256 184.113L428.777 201.541H417.856L423.256 184.113Z" fill="#201E1E"/>
<path d="M484.82 218.365V176.756H474.799V192.918H459.617V176.756H449.597V218.365H459.617V201.42H474.799V218.365H484.82Z" fill="#201E1E"/>
<path d="M526.797 203.772C526.797 194.606 522.177 189.299 512.216 189.299H503.215V176.756H493.194V218.365H512.216C522.177 218.365 526.797 212.938 526.797 203.772ZM516.476 202.626V204.978C516.476 207.873 514.496 209.983 511.076 209.983H503.215V197.681H511.076C514.676 197.681 516.476 199.551 516.476 202.626Z" fill="#201E1E"/>
<path d="M366.007 237.813H355.986V256.025C353.946 256.206 351.366 256.326 349.086 256.326C343.865 256.326 341.465 254.758 341.465 248.668V237.813H331.444V249.693C331.444 260.728 337.144 264.588 348.245 264.648C351.006 264.648 353.886 264.467 355.986 264.286V279.422H366.007V237.813Z" fill="#201E1E"/>
<path d="M384.131 237.813L371.109 279.422H380.29L383.111 270.256H398.832L401.772 279.422H412.273L398.832 237.813H384.131ZM390.851 245.17L396.372 262.598H385.451L390.851 245.17Z" fill="#201E1E"/>
<path d="M433.126 280.206C443.807 280.206 450.228 276.106 451.488 265.673H441.167C440.327 270.739 437.507 272.186 433.126 272.186C427.486 272.186 424.426 269.472 424.426 261.633V255.482C424.426 247.582 427.666 245.049 433.126 245.049C437.687 245.049 440.507 246.617 441.107 251.562H451.428C450.228 241.009 443.927 237.029 433.126 237.029C420.885 237.029 414.105 243.18 414.105 258.497C414.105 274.236 420.885 280.206 433.126 280.206Z" fill="#201E1E"/>
<path d="M489.072 246.316V237.813H454.449V246.316H466.75V279.422H476.771V246.316H489.072Z" fill="#201E1E"/>
<path d="M528.086 264.829C528.086 255.663 523.466 250.356 513.505 250.356H504.504V237.813H494.483V279.422H513.505C523.466 279.422 528.086 273.995 528.086 264.829ZM517.765 263.683V266.035C517.765 268.929 515.785 271.04 512.365 271.04H504.504V258.738H512.365C515.965 258.738 517.765 260.608 517.765 263.683Z" fill="#201E1E"/>
<path d="M588.886 258.497C588.886 242.818 582.045 237.029 569.144 237.029C557.623 237.029 550.902 241.733 549.642 253.974H543.941V237.813H533.921V279.422H543.941V262.055H549.582C550.542 275.382 557.263 280.206 569.144 280.206C582.045 280.206 588.886 274.477 588.886 258.497ZM578.565 261.331C578.565 269.412 575.504 272.186 569.144 272.186C562.783 272.186 559.783 269.412 559.783 261.331V255.783C559.783 248.185 562.783 245.049 569.144 245.049C575.504 245.049 578.565 248.185 578.565 255.783V261.331Z" fill="#201E1E"/>
<path d="M620.589 237.813H610.568V279.422H620.589V262.718H623.169L635.17 279.422H646.871L631.45 257.834L645.611 237.813H634.87L623.229 254.155H620.589V237.813Z" fill="#201E1E"/>
<path d="M688.304 258.196C688.304 242.698 681.224 237.029 667.962 237.029C654.701 237.029 647.681 242.698 647.681 258.196C647.681 274.417 654.701 280.206 667.962 280.206C681.224 280.206 688.304 274.417 688.304 258.196ZM677.983 261.15C677.983 269.412 674.743 272.186 667.962 272.186C661.182 272.186 658.001 269.412 658.001 261.15V256.025C658.001 248.246 661.182 245.049 667.962 245.049C674.743 245.049 677.983 248.246 677.983 256.025V261.15Z" fill="#201E1E"/>
<path d="M711.332 237.813H694.951V279.422H704.252V245.472L712.292 273.935H723.333L731.374 245.653V279.422H741.395V237.813H726.154L718.713 264.467L711.332 237.813Z" fill="#201E1E"/>
<path d="M759.34 237.813L746.319 279.422H755.5L758.32 270.256H774.042L776.982 279.422H787.483L774.042 237.813H759.34ZM766.061 245.17L771.581 262.598H760.66L766.061 245.17Z" fill="#201E1E"/>
<path d="M827.624 279.422V237.813H817.603V253.974H802.422V237.813H792.401V279.422H802.422V262.477H817.603V279.422H827.624Z" fill="#201E1E"/>
<path d="M832.218 288.468H841.639V279.422H867.742V288.468H877.162V270.919H871.762V237.813H839.839V253.552C839.839 262.176 837.979 268.266 836.479 270.919H832.218V288.468ZM861.741 246.316V270.919H846.32C847.7 268.266 849.08 262.236 849.08 253.552V246.316H861.741Z" fill="#201E1E"/>
<path d="M915.719 264.829C915.719 255.663 911.099 250.356 901.138 250.356H892.137V237.813H882.116V279.422H901.138C911.099 279.422 915.719 273.995 915.719 264.829ZM905.398 263.683V266.035C905.398 268.929 903.418 271.04 899.998 271.04H892.137V258.738H899.998C903.598 258.738 905.398 260.608 905.398 263.683ZM930 279.422V237.813H919.979V279.422H930Z" fill="#201E1E"/>
<path d="M348.546 298.87H332.164V340.479H341.465V306.528L349.506 334.991H360.547L368.587 306.709V340.479H378.608V298.87H363.367L355.926 325.524L348.546 298.87Z" fill="#201E1E"/>
<path d="M387.013 298.87V340.479H397.034V307.373H415.155V298.87H387.013Z" fill="#201E1E"/>
<path d="M453.619 307.373V298.87H418.996V307.373H431.297V340.479H441.318V307.373H453.619Z" fill="#201E1E"/>
<path d="M475.201 341.263C485.882 341.263 492.302 337.162 493.562 326.73H483.241C482.401 331.795 479.581 333.243 475.201 333.243C469.56 333.243 466.5 330.529 466.5 322.69V316.539C466.5 308.639 469.74 306.106 475.201 306.106C479.761 306.106 482.581 307.674 483.181 312.619H493.502C492.302 302.066 486.002 298.086 475.201 298.086C462.959 298.086 456.179 304.237 456.179 319.554C456.179 335.293 462.959 341.263 475.201 341.263Z" fill="#201E1E"/>
</g>
</g>
<defs>
<linearGradient id="paint0_linear_310_606" x1="17.2358" y1="250.54" x2="251.729" y2="250.54" gradientUnits="userSpaceOnUse">
<stop stop-color="#017AC4"/>
<stop offset="0.01" stop-color="#027AC3"/>
<stop offset="0.02" stop-color="#0578C3"/>
<stop offset="0.03" stop-color="#0777C2"/>
<stop offset="0.04" stop-color="#0976C1"/>
<stop offset="0.05" stop-color="#0C75C0"/>
<stop offset="0.06" stop-color="#0D74C0"/>
<stop offset="0.07" stop-color="#1072BF"/>
<stop offset="0.08" stop-color="#1171BE"/>
<stop offset="0.09" stop-color="#1470BE"/>
<stop offset="0.1" stop-color="#166FBD"/>
<stop offset="0.11" stop-color="#186EBC"/>
<stop offset="0.12" stop-color="#1A6DBC"/>
<stop offset="0.13" stop-color="#1C6BBB"/>
<stop offset="0.14" stop-color="#1F6ABA"/>
<stop offset="0.15" stop-color="#2169BA"/>
<stop offset="0.16" stop-color="#2367B9"/>
<stop offset="0.17" stop-color="#2567B8"/>
<stop offset="0.18" stop-color="#2765B7"/>
<stop offset="0.19" stop-color="#2964B7"/>
<stop offset="0.2" stop-color="#2C63B6"/>
<stop offset="0.21" stop-color="#2E61B5"/>
<stop offset="0.22" stop-color="#3061B5"/>
<stop offset="0.23" stop-color="#325FB4"/>
<stop offset="0.24" stop-color="#345EB3"/>
<stop offset="0.25" stop-color="#365DB3"/>
<stop offset="0.26" stop-color="#385CB2"/>
<stop offset="0.27" stop-color="#3B5AB1"/>
<stop offset="0.28" stop-color="#3C5AB1"/>
<stop offset="0.29" stop-color="#3F58B0"/>
<stop offset="0.3" stop-color="#4157AF"/>
<stop offset="0.31" stop-color="#4356AF"/>
<stop offset="0.32" stop-color="#4654AE"/>
<stop offset="0.33" stop-color="#4753AD"/>
<stop offset="0.34" stop-color="#4A52AC"/>
<stop offset="0.35" stop-color="#4C51AC"/>
<stop offset="0.36" stop-color="#4E50AB"/>
<stop offset="0.37" stop-color="#504FAA"/>
<stop offset="0.38" stop-color="#524DAA"/>
<stop offset="0.39" stop-color="#554CA9"/>
<stop offset="0.4" stop-color="#564BA8"/>
<stop offset="0.41" stop-color="#594AA7"/>
<stop offset="0.42" stop-color="#5B49A7"/>
<stop offset="0.43" stop-color="#5D47A6"/>
<stop offset="0.44" stop-color="#5F46A6"/>
<stop offset="0.45" stop-color="#6145A5"/>
<stop offset="0.46" stop-color="#6444A4"/>
<stop offset="0.47" stop-color="#6643A3"/>
<stop offset="0.48" stop-color="#6841A3"/>
<stop offset="0.49" stop-color="#6A40A2"/>
<stop offset="0.5" stop-color="#6C3FA1"/>
<stop offset="0.51" stop-color="#6E3EA1"/>
<stop offset="0.52" stop-color="#713DA0"/>
<stop offset="0.53" stop-color="#723C9F"/>
<stop offset="0.54" stop-color="#753A9F"/>
<stop offset="0.55" stop-color="#77399E"/>
<stop offset="0.56" stop-color="#79389D"/>
<stop offset="0.57" stop-color="#7B379C"/>
<stop offset="0.58" stop-color="#7D369C"/>
<stop offset="0.59" stop-color="#80349B"/>
<stop offset="0.6" stop-color="#81339B"/>
<stop offset="0.61" stop-color="#84329A"/>
<stop offset="0.62" stop-color="#863199"/>
<stop offset="0.63" stop-color="#883098"/>
<stop offset="0.64" stop-color="#8B2E98"/>
<stop offset="0.65" stop-color="#8C2D97"/>
<stop offset="0.66" stop-color="#8F2C96"/>
<stop offset="0.67" stop-color="#902B96"/>
<stop offset="0.68" stop-color="#932A95"/>
<stop offset="0.69" stop-color="#952994"/>
<stop offset="0.7" stop-color="#972793"/>
<stop offset="0.71" stop-color="#9A2693"/>
<stop offset="0.72" stop-color="#9B2592"/>
<stop offset="0.73" stop-color="#9E2491"/>
<stop offset="0.74" stop-color="#A02391"/>
<stop offset="0.75" stop-color="#A22190"/>
<stop offset="0.76" stop-color="#A4208F"/>
<stop offset="0.77" stop-color="#A61F8F"/>
<stop offset="0.78" stop-color="#A81E8E"/>
<stop offset="0.79" stop-color="#AB1D8D"/>
<stop offset="0.8" stop-color="#AD1B8C"/>
<stop offset="0.81" stop-color="#AF1A8C"/>
<stop offset="0.82" stop-color="#B1198B"/>
<stop offset="0.83" stop-color="#B3188B"/>
<stop offset="0.84" stop-color="#B5178A"/>
<stop offset="0.85" stop-color="#B71689"/>
<stop offset="0.86" stop-color="#BA1488"/>
<stop offset="0.87" stop-color="#BB1388"/>
<stop offset="0.88" stop-color="#BE1287"/>
<stop offset="0.89" stop-color="#C01186"/>
<stop offset="0.9" stop-color="#C21086"/>
<stop offset="0.91" stop-color="#C50E85"/>
<stop offset="0.92" stop-color="#C60D84"/>
<stop offset="0.93" stop-color="#C90C84"/>
<stop offset="0.94" stop-color="#CA0B83"/>
<stop offset="0.95" stop-color="#CD0A82"/>
<stop offset="0.96" stop-color="#D00881"/>
<stop offset="0.97" stop-color="#D10781"/>
<stop offset="0.98" stop-color="#D40680"/>
<stop offset="0.99" stop-color="#D5057F"/>
<stop offset="1" stop-color="#D7047F"/>
</linearGradient>
<linearGradient id="paint1_linear_310_606" x1="49.2506" y1="248.414" x2="252.505" y2="248.414" gradientUnits="userSpaceOnUse">
<stop stop-color="#017AC4"/>
<stop offset="0.01" stop-color="#027AC3"/>
<stop offset="0.02" stop-color="#0578C3"/>
<stop offset="0.03" stop-color="#0777C2"/>
<stop offset="0.04" stop-color="#0976C1"/>
<stop offset="0.05" stop-color="#0C75C0"/>
<stop offset="0.06" stop-color="#0D74C0"/>
<stop offset="0.07" stop-color="#1072BF"/>
<stop offset="0.08" stop-color="#1171BE"/>
<stop offset="0.09" stop-color="#1470BE"/>
<stop offset="0.1" stop-color="#166FBD"/>
<stop offset="0.11" stop-color="#186EBC"/>
<stop offset="0.12" stop-color="#1A6DBC"/>
<stop offset="0.13" stop-color="#1C6BBB"/>
<stop offset="0.14" stop-color="#1F6ABA"/>
<stop offset="0.15" stop-color="#2169BA"/>
<stop offset="0.16" stop-color="#2367B9"/>
<stop offset="0.17" stop-color="#2567B8"/>
<stop offset="0.18" stop-color="#2765B7"/>
<stop offset="0.19" stop-color="#2964B7"/>
<stop offset="0.2" stop-color="#2C63B6"/>
<stop offset="0.21" stop-color="#2E61B5"/>
<stop offset="0.22" stop-color="#3061B5"/>
<stop offset="0.23" stop-color="#325FB4"/>
<stop offset="0.24" stop-color="#345EB3"/>
<stop offset="0.25" stop-color="#365DB3"/>
<stop offset="0.26" stop-color="#385CB2"/>
<stop offset="0.27" stop-color="#3B5AB1"/>
<stop offset="0.28" stop-color="#3C5AB1"/>
<stop offset="0.29" stop-color="#3F58B0"/>
<stop offset="0.3" stop-color="#4157AF"/>
<stop offset="0.31" stop-color="#4356AF"/>
<stop offset="0.32" stop-color="#4654AE"/>
<stop offset="0.33" stop-color="#4753AD"/>
<stop offset="0.34" stop-color="#4A52AC"/>
<stop offset="0.35" stop-color="#4C51AC"/>
<stop offset="0.36" stop-color="#4E50AB"/>
<stop offset="0.37" stop-color="#504FAA"/>
<stop offset="0.38" stop-color="#524DAA"/>
<stop offset="0.39" stop-color="#554CA9"/>
<stop offset="0.4" stop-color="#564BA8"/>
<stop offset="0.41" stop-color="#594AA7"/>
<stop offset="0.42" stop-color="#5B49A7"/>
<stop offset="0.43" stop-color="#5D47A6"/>
<stop offset="0.44" stop-color="#5F46A6"/>
<stop offset="0.45" stop-color="#6145A5"/>
<stop offset="0.46" stop-color="#6444A4"/>
<stop offset="0.47" stop-color="#6643A3"/>
<stop offset="0.48" stop-color="#6841A3"/>
<stop offset="0.49" stop-color="#6A40A2"/>
<stop offset="0.5" stop-color="#6C3FA1"/>
<stop offset="0.51" stop-color="#6E3EA1"/>
<stop offset="0.52" stop-color="#713DA0"/>
<stop offset="0.53" stop-color="#723C9F"/>
<stop offset="0.54" stop-color="#753A9F"/>
<stop offset="0.55" stop-color="#77399E"/>
<stop offset="0.56" stop-color="#79389D"/>
<stop offset="0.57" stop-color="#7B379C"/>
<stop offset="0.58" stop-color="#7D369C"/>
<stop offset="0.59" stop-color="#80349B"/>
<stop offset="0.6" stop-color="#81339B"/>
<stop offset="0.61" stop-color="#84329A"/>
<stop offset="0.62" stop-color="#863199"/>
<stop offset="0.63" stop-color="#883098"/>
<stop offset="0.64" stop-color="#8B2E98"/>
<stop offset="0.65" stop-color="#8C2D97"/>
<stop offset="0.66" stop-color="#8F2C96"/>
<stop offset="0.67" stop-color="#902B96"/>
<stop offset="0.68" stop-color="#932A95"/>
<stop offset="0.69" stop-color="#952994"/>
<stop offset="0.7" stop-color="#972793"/>
<stop offset="0.71" stop-color="#9A2693"/>
<stop offset="0.72" stop-color="#9B2592"/>
<stop offset="0.73" stop-color="#9E2491"/>
<stop offset="0.74" stop-color="#A02391"/>
<stop offset="0.75" stop-color="#A22190"/>
<stop offset="0.76" stop-color="#A4208F"/>
<stop offset="0.77" stop-color="#A61F8F"/>
<stop offset="0.78" stop-color="#A81E8E"/>
<stop offset="0.79" stop-color="#AB1D8D"/>
<stop offset="0.8" stop-color="#AD1B8C"/>
<stop offset="0.81" stop-color="#AF1A8C"/>
<stop offset="0.82" stop-color="#B1198B"/>
<stop offset="0.83" stop-color="#B3188B"/>
<stop offset="0.84" stop-color="#B5178A"/>
<stop offset="0.85" stop-color="#B71689"/>
<stop offset="0.86" stop-color="#BA1488"/>
<stop offset="0.87" stop-color="#BB1388"/>
<stop offset="0.88" stop-color="#BE1287"/>
<stop offset="0.89" stop-color="#C01186"/>
<stop offset="0.9" stop-color="#C21086"/>
<stop offset="0.91" stop-color="#C50E85"/>
<stop offset="0.92" stop-color="#C60D84"/>
<stop offset="0.93" stop-color="#C90C84"/>
<stop offset="0.94" stop-color="#CA0B83"/>
<stop offset="0.95" stop-color="#CD0A82"/>
<stop offset="0.96" stop-color="#D00881"/>
<stop offset="0.97" stop-color="#D10781"/>
<stop offset="0.98" stop-color="#D40680"/>
<stop offset="0.99" stop-color="#D5057F"/>
<stop offset="1" stop-color="#D7047F"/>
</linearGradient>
<linearGradient id="paint2_linear_310_606" x1="224.745" y1="105.773" x2="267.807" y2="105.773" gradientUnits="userSpaceOnUse">
<stop stop-color="#611D27"/>
<stop offset="0.61" stop-color="#641F27"/>
<stop offset="1" stop-color="#BF5726"/>
</linearGradient>
<linearGradient id="paint3_linear_310_606" x1="228.836" y1="109.774" x2="264.427" y2="109.774" gradientUnits="userSpaceOnUse">
<stop stop-color="#611D27"/>
<stop offset="0.61" stop-color="#641F27"/>
<stop offset="1" stop-color="#BF5726"/>
</linearGradient>
<linearGradient id="paint4_linear_310_606" x1="230.203" y1="98.1977" x2="233.769" y2="98.1977" gradientUnits="userSpaceOnUse">
<stop stop-color="#611D27"/>
<stop offset="0.61" stop-color="#641F27"/>
</linearGradient>
<linearGradient id="paint5_linear_310_606" x1="233.529" y1="96.9482" x2="234.622" y2="96.9482" gradientUnits="userSpaceOnUse">
<stop stop-color="#611D27"/>
<stop offset="0.61" stop-color="#641F27"/>
</linearGradient>
<linearGradient id="paint6_linear_310_606" x1="96.4023" y1="277.891" x2="209.389" y2="277.891" gradientUnits="userSpaceOnUse">
<stop stop-color="#4B76BA"/>
<stop offset="0.52" stop-color="#5AC5F1"/>
<stop offset="0.9" stop-color="#4B76BA"/>
</linearGradient>
<linearGradient id="paint7_linear_310_606" x1="156.297" y1="196.146" x2="253.916" y2="196.146" gradientUnits="userSpaceOnUse">
<stop stop-color="#4B76BA"/>
<stop offset="0.52" stop-color="#5AC5F1"/>
<stop offset="0.9" stop-color="#4B76BA"/>
</linearGradient>
<linearGradient id="paint8_linear_310_606" x1="250.591" y1="144.086" x2="340.433" y2="144.086" gradientUnits="userSpaceOnUse">
<stop stop-color="#4B76BA"/>
<stop offset="0.52" stop-color="#5AC5F1"/>
<stop offset="0.9" stop-color="#4B76BA"/>
</linearGradient>
<linearGradient id="paint9_linear_310_606" x1="91.9185" y1="324.393" x2="162.849" y2="324.393" gradientUnits="userSpaceOnUse">
<stop stop-color="#4B3C8F"/>
<stop offset="0.52" stop-color="#7747A8" stop-opacity="0.8"/>
<stop offset="0.9" stop-color="#662384"/>
</linearGradient>
<linearGradient id="paint10_linear_310_606" x1="153.508" y1="231.115" x2="214.125" y2="231.115" gradientUnits="userSpaceOnUse">
<stop stop-color="#4B3C8F"/>
<stop offset="0.52" stop-color="#7747A8" stop-opacity="0.8"/>
<stop offset="0.9" stop-color="#662384"/>
</linearGradient>
<linearGradient id="paint11_linear_310_606" x1="47.2813" y1="288.02" x2="181.486" y2="288.02" gradientUnits="userSpaceOnUse">
<stop stop-color="#4B76BA"/>
<stop offset="0.52" stop-color="#5AC5F1"/>
<stop offset="0.9" stop-color="#4B76BA"/>
</linearGradient>
<linearGradient id="paint12_linear_310_606" x1="35.9282" y1="350.012" x2="110.895" y2="350.012" gradientUnits="userSpaceOnUse">
<stop stop-color="#4B3C8F"/>
<stop offset="0.52" stop-color="#7747A8" stop-opacity="0.8"/>
<stop offset="0.9" stop-color="#662384"/>
</linearGradient>
<linearGradient id="paint13_linear_310_606" x1="246.632" y1="97.7263" x2="269.152" y2="97.7263" gradientUnits="userSpaceOnUse">
<stop stop-color="#611D27"/>
<stop offset="1" stop-color="#BF5726"/>
</linearGradient>
<linearGradient id="paint14_linear_310_606" x1="246.468" y1="90.349" x2="258.16" y2="90.349" gradientUnits="userSpaceOnUse">
<stop stop-color="#611D27"/>
<stop offset="0.61" stop-color="#641F27"/>
<stop offset="1" stop-color="#BF5726"/>
</linearGradient>
<linearGradient id="paint15_linear_310_606" x1="313.734" y1="112.153" x2="340.433" y2="112.153" gradientUnits="userSpaceOnUse">
<stop stop-color="#4B3C8F"/>
<stop offset="0.52" stop-color="#7747A8" stop-opacity="0.8"/>
<stop offset="0.9" stop-color="#662384"/>
</linearGradient>
<linearGradient id="paint16_linear_310_606" x1="141.302" y1="176.72" x2="222.962" y2="176.72" gradientUnits="userSpaceOnUse">
<stop stop-color="#4B76BA"/>
<stop offset="0.52" stop-color="#5AC5F1"/>
<stop offset="0.9" stop-color="#4B76BA"/>
</linearGradient>
<linearGradient id="paint17_linear_310_606" x1="146.147" y1="184.833" x2="164.708" y2="184.833" gradientUnits="userSpaceOnUse">
<stop stop-color="#4B3C8F"/>
<stop offset="0.52" stop-color="#7747A8" stop-opacity="0.8"/>
<stop offset="0.9" stop-color="#662384"/>
</linearGradient>
<linearGradient id="paint18_linear_310_606" x1="160.465" y1="223.431" x2="216.903" y2="223.431" gradientUnits="userSpaceOnUse">
<stop stop-color="#4B3C8F"/>
<stop offset="0.52" stop-color="#7747A8" stop-opacity="0.8"/>
<stop offset="0.9" stop-color="#662384"/>
</linearGradient>
</defs>
</svg>
