<svg width="290" height="140" viewBox="0 0 290 140" fill="none" xmlns="http://www.w3.org/2000/svg">
<g id="Group 10291">
<g id="Background Complete">
<g id="Group" opacity="0.4">
<path id="Vector" opacity="0.9" d="M99.6795 100.147C117.805 82.0426 117.805 52.6904 99.6795 34.5865C81.5539 16.4826 52.1665 16.4826 34.0409 34.5865C15.9154 52.6904 15.9154 82.0426 34.0409 100.147C52.1665 118.25 81.5539 118.25 99.6795 100.147Z" fill="#C8B0BE"/>
<path id="Vector_2" opacity="0.9" d="M84.1815 94.8726C82.5908 92.694 80.0511 91.4223 77.5251 90.4608C72.7155 88.6334 67.626 87.6412 62.8266 85.7524C58.0272 83.8636 53.4019 80.8565 51.0909 76.2503C48.128 70.3691 49.5651 63.3593 50.5482 56.8507C51.5313 50.3422 51.6712 42.821 46.9981 38.1773C43.9499 35.143 39.2085 34.0349 35.0509 35.1395C34.2111 35.3637 33.3958 35.6709 32.617 36.0567C26.1158 43.1628 21.99 52.1136 20.812 61.6675C19.634 71.2214 21.4622 80.9046 26.0429 89.3739C30.6237 97.8431 37.7299 104.678 46.3757 108.932C55.0215 113.185 64.7783 114.645 74.2925 113.11C77.1258 112.186 79.7781 110.849 81.9217 108.8C85.639 105.261 87.2161 99.0287 84.1815 94.8726Z" fill="#B29DAA"/>
<path id="Vector_3" opacity="0.4" d="M55.2442 46.8958C58.5124 43.9813 58.7963 38.9725 55.8783 35.7082C52.9603 32.444 47.9455 32.1604 44.6773 35.0749C41.4091 37.9894 41.1253 42.9983 44.0432 46.2625C46.9612 49.5268 51.9761 49.8103 55.2442 46.8958Z" fill="#E0E0E0"/>
<path id="Vector_4" opacity="0.4" d="M64.9755 103.302C69.6306 101.781 72.1702 96.7789 70.6478 92.1293C69.1253 87.4797 64.1174 84.9431 59.4622 86.4638C54.807 87.9844 52.2674 92.9864 53.7898 97.636C55.3123 102.286 60.3203 104.822 64.9755 103.302Z" fill="#E0E0E0"/>
<path id="Vector_5" opacity="0.4" d="M94.6136 95.3721C99.0866 93.3792 101.095 88.1419 99.0999 83.6743C97.1047 79.2066 91.8611 77.2004 87.3881 79.1933C82.9151 81.1862 80.9065 86.4234 82.9018 90.8911C84.897 95.3587 90.1406 97.3649 94.6136 95.3721Z" fill="#E0E0E0"/>
<path id="Vector_6" opacity="0.4" d="M67.0615 47.8973C68.2582 46.0645 67.7407 43.6099 65.9058 42.4147C64.0709 41.2195 61.6133 41.7363 60.4167 43.569C59.2201 45.4018 59.7375 47.8564 61.5724 49.0516C63.4074 50.2468 65.8649 49.73 67.0615 47.8973Z" fill="#E0E0E0"/>
<path id="Vector_7" opacity="0.4" d="M62.1441 81.627C61.9137 82.1084 61.5454 82.5108 61.086 82.7832C60.6265 83.0556 60.0965 83.1857 59.563 83.157C59.0295 83.1284 58.5165 82.9423 58.0889 82.6223C57.6613 82.3023 57.3384 81.8629 57.161 81.3595C56.9836 80.8561 56.9597 80.3115 57.0923 79.7945C57.225 79.2776 57.5082 78.8116 57.9061 78.4555C58.304 78.0994 58.7988 77.8692 59.3278 77.7941C59.8567 77.7189 60.3961 77.8022 60.8776 78.0334C61.1971 78.1863 61.4832 78.4005 61.7197 78.6638C61.9563 78.9272 62.1385 79.2345 62.2561 79.5682C62.3737 79.9019 62.4244 80.2554 62.4051 80.6087C62.3859 80.9619 62.2972 81.308 62.1441 81.627Z" fill="#E0E0E0"/>
<path id="Vector_8" opacity="0.4" d="M40.4308 81.5759C40.2283 81.9978 39.905 82.3503 39.5019 82.5887C39.0988 82.8272 38.6339 82.9409 38.1661 82.9154C37.6983 82.89 37.2486 82.7267 36.8737 82.446C36.4989 82.1653 36.2158 81.7799 36.0602 81.3385C35.9046 80.8971 35.8836 80.4196 35.9997 79.9663C36.1158 79.513 36.3639 79.1042 36.7126 78.7917C37.0613 78.4792 37.4949 78.277 37.9587 78.2106C38.4224 78.1442 38.8955 78.2166 39.318 78.4188C39.8811 78.694 40.3132 79.1792 40.5214 79.7698C40.7296 80.3604 40.697 81.0091 40.4308 81.5759V81.5759Z" fill="#E0E0E0"/>
<path id="Vector_9" opacity="0.4" d="M53.0382 85.0174C54.2343 82.5582 53.2079 79.5961 50.7457 78.4014C48.2835 77.2067 45.3179 78.2319 44.1218 80.6911C42.9257 83.1504 43.9521 86.1125 46.4143 87.3071C48.8764 88.5018 51.8421 87.4767 53.0382 85.0174Z" fill="#E0E0E0"/>
<path id="Vector_10" opacity="0.4" d="M55.2442 46.8958C58.5124 43.9813 58.7963 38.9725 55.8783 35.7082C52.9603 32.444 47.9455 32.1604 44.6773 35.0749C41.4091 37.9894 41.1253 42.9983 44.0432 46.2625C46.9612 49.5268 51.9761 49.8103 55.2442 46.8958Z" fill="#D8CAD3"/>
<path id="Vector_11" opacity="0.4" d="M64.9755 103.302C69.6306 101.781 72.1702 96.7789 70.6478 92.1293C69.1253 87.4797 64.1174 84.9431 59.4622 86.4638C54.807 87.9844 52.2674 92.9864 53.7898 97.636C55.3123 102.286 60.3203 104.822 64.9755 103.302Z" fill="#D8CAD3"/>
<path id="Vector_12" opacity="0.4" d="M94.6136 95.3721C99.0866 93.3792 101.095 88.1419 99.0999 83.6743C97.1047 79.2066 91.8611 77.2004 87.3881 79.1933C82.9151 81.1862 80.9065 86.4234 82.9018 90.8911C84.897 95.3587 90.1406 97.3649 94.6136 95.3721Z" fill="#D8CAD3"/>
<path id="Vector_13" opacity="0.4" d="M67.0615 47.8973C68.2582 46.0645 67.7407 43.6099 65.9058 42.4147C64.0709 41.2195 61.6133 41.7363 60.4167 43.569C59.2201 45.4018 59.7375 47.8564 61.5724 49.0516C63.4074 50.2468 65.8649 49.73 67.0615 47.8973Z" fill="#D8CAD3"/>
<path id="Vector_14" opacity="0.4" d="M62.1441 81.627C61.9137 82.1084 61.5454 82.5108 61.086 82.7832C60.6265 83.0556 60.0965 83.1857 59.563 83.157C59.0295 83.1284 58.5165 82.9423 58.0889 82.6223C57.6613 82.3023 57.3384 81.8629 57.161 81.3595C56.9836 80.8561 56.9597 80.3115 57.0923 79.7945C57.225 79.2776 57.5082 78.8116 57.9061 78.4555C58.304 78.0994 58.7988 77.8692 59.3278 77.7941C59.8567 77.7189 60.3961 77.8022 60.8776 78.0334C61.1971 78.1863 61.4832 78.4005 61.7197 78.6638C61.9563 78.9272 62.1385 79.2345 62.2561 79.5682C62.3737 79.9019 62.4244 80.2554 62.4051 80.6087C62.3859 80.9619 62.2972 81.308 62.1441 81.627Z" fill="#D8CAD3"/>
<path id="Vector_15" opacity="0.4" d="M40.4308 81.5759C40.2283 81.9978 39.905 82.3503 39.5019 82.5887C39.0988 82.8272 38.6339 82.9409 38.1661 82.9154C37.6983 82.89 37.2486 82.7267 36.8737 82.446C36.4989 82.1653 36.2158 81.7799 36.0602 81.3385C35.9046 80.8971 35.8836 80.4196 35.9997 79.9663C36.1158 79.513 36.3639 79.1042 36.7126 78.7917C37.0613 78.4792 37.4949 78.277 37.9587 78.2106C38.4224 78.1442 38.8955 78.2166 39.318 78.4188C39.8811 78.694 40.3132 79.1792 40.5214 79.7698C40.7296 80.3604 40.697 81.0091 40.4308 81.5759V81.5759Z" fill="#D8CAD3"/>
<path id="Vector_16" opacity="0.4" d="M53.0382 85.0174C54.2343 82.5582 53.2079 79.5961 50.7457 78.4014C48.2835 77.2067 45.3179 78.2319 44.1218 80.6911C42.9257 83.1504 43.9521 86.1125 46.4143 87.3071C48.8764 88.5018 51.8421 87.4767 53.0382 85.0174Z" fill="#D8CAD3"/>
</g>
<path id="Vector_17" opacity="0.4" d="M62.665 134.633H111.028C111.028 134.633 106.75 126.856 94.3014 127.988C82.4088 129.069 81.8046 124.166 75.7592 123.556C69.7139 122.946 64.6824 127.586 62.665 134.633Z" fill="#C8B0BE"/>
<path id="Vector_18" opacity="0.4" d="M0 28.4468H30.8888C30.8888 28.4468 28.158 23.4827 20.208 24.2021C12.6129 24.884 12.2272 21.7609 8.3665 21.3757C4.50583 20.9904 1.28689 23.9464 0 28.4468Z" fill="#C8B0BE"/>
<path id="Vector_19" opacity="0.4" d="M13.4902 10.486H59.081C59.081 10.486 55.0463 3.15919 43.314 4.22634C32.1075 5.24916 31.5374 0.619179 25.8369 0.0498066C20.1363 -0.519566 15.3881 3.84448 13.4902 10.486Z" fill="#C8B0BE"/>
<path id="Vector_20" opacity="0.4" d="M98.5273 120.205H129.42C129.42 120.205 126.689 115.241 118.735 115.963C111.14 116.645 110.755 113.519 106.894 113.133C103.033 112.748 99.8142 115.704 98.5273 120.205Z" fill="#C8B0BE"/>
</g>
<g id="Character">
<path id="Vector_21" d="M39.3485 44.7448C39.3758 44.7857 33.2434 48.9465 25.6546 54.035C18.0659 59.1234 11.8926 63.2194 11.8653 63.1785C11.838 63.1376 17.967 58.9802 25.5557 53.8883C33.1445 48.7965 39.3212 44.7039 39.3485 44.7448Z" fill="#755BA4"/>
<path id="Vector_22" d="M41.388 121.566C41.4153 121.607 35.2829 125.768 27.6942 130.856C20.1055 135.945 13.9287 140.041 13.9015 140C13.8742 139.959 20.0066 135.801 27.5953 130.71C35.184 125.618 41.3607 121.539 41.388 121.566Z" fill="#755BA4"/>
<path id="Vector_23" d="M47.7116 31.5974C47.7389 31.6349 44.185 34.3053 39.775 37.5589C35.365 40.8125 31.7633 43.4147 31.7326 43.3772C31.7019 43.3397 35.2558 40.6693 39.6692 37.4157C44.0826 34.1621 47.6809 31.5565 47.7116 31.5974Z" fill="#755BA4"/>
<path id="Vector_24" d="M55.6989 118.074C55.7262 118.111 52.1723 120.782 47.7623 124.035C43.3523 127.289 39.7506 129.894 39.7199 129.853C39.6892 129.813 43.2431 127.146 47.6565 123.892C52.0699 120.638 55.6682 118.033 55.6989 118.074Z" fill="#755BA4"/>
<path id="Vector_25" d="M113.745 49.2364C113.776 49.2773 110.222 51.9443 105.812 55.1979C101.402 58.4515 97.797 61.0572 97.7697 61.0162C97.7424 60.9753 101.293 58.3083 105.706 55.0547C110.12 51.8011 113.718 49.1955 113.745 49.2364Z" fill="#755BA4"/>
<path id="Vector_26" d="M122.449 33.688C122.48 33.7289 118.926 36.3993 114.513 39.6495C110.099 42.8997 106.501 45.5122 106.474 45.4712C106.447 45.4303 109.997 42.7633 114.41 39.5097C118.824 36.2561 122.422 33.6505 122.449 33.688Z" fill="#755BA4"/>
<path id="Vector_27" d="M78.2882 49.8537C78.2882 49.8537 80.5427 68.093 70.1811 81.0563C59.8195 94.0195 32.4932 108.538 29.8602 108.92C29.8602 108.92 37.7866 102.379 28.1855 99.3364C18.5845 96.2943 14.5429 92.3995 14.5906 88.706C14.6384 85.0124 23.854 76.0121 19.4781 71.7115C15.1022 67.4109 8.47188 66.1217 5.375 61.1186C5.375 61.1186 15.4706 65.9308 23.206 65.1634C30.9413 64.396 59.4989 56.8759 65.3686 46.9753" fill="url(#paint0_linear_310_702)"/>
<path id="Vector_28" d="M30.2217 87.6556C30.2217 87.6556 30.2728 87.6181 30.382 87.5669L30.8527 87.3418L32.5921 86.5199C34.0553 85.8173 36.0573 84.8146 38.2129 83.5937C40.3684 82.3727 42.2647 81.1791 43.6222 80.2889L45.2218 79.2214L45.6584 78.9349C45.7074 78.8971 45.7613 78.8661 45.8187 78.8429C45.8187 78.8429 45.7743 78.8906 45.6788 78.9656L45.2627 79.2794C44.8978 79.5522 44.3623 79.9342 43.6904 80.3912C42.35 81.3121 40.4605 82.5262 38.2981 83.7471C36.1358 84.9681 34.1235 85.9606 32.6433 86.6324C31.9066 86.9735 31.3029 87.2327 30.8799 87.4032L30.3956 87.5976C30.3409 87.6256 30.2822 87.6451 30.2217 87.6556V87.6556Z" fill="#263238"/>
<path id="Vector_29" d="M17.6016 85.2273H17.68L17.9153 85.2068L18.8158 85.1488C19.208 85.1318 19.6855 85.1011 20.2414 85.0465C20.7974 84.9919 21.4283 84.9544 22.1207 84.8589L23.2121 84.7259C23.5907 84.6782 23.9829 84.6066 24.3888 84.5486C25.2073 84.4326 26.0668 84.2587 26.9775 84.0848C28.7885 83.7062 30.7633 83.2117 32.8029 82.5705C34.8425 81.9293 36.7354 81.179 38.4339 80.4458C39.2763 80.0604 40.0847 79.7057 40.8214 79.3306C41.1897 79.143 41.5513 78.9895 41.8855 78.7951L42.8405 78.2529C43.4612 77.9323 44.0035 77.598 44.4844 77.3218C44.9653 77.0455 45.378 76.7966 45.7089 76.5851L46.4763 76.1111L46.6775 75.9917C46.7252 75.9678 46.7491 75.9542 46.7525 75.9576L46.6877 76.0088L46.4967 76.1418L45.7464 76.6431C45.4053 76.8614 45.0165 77.124 44.5356 77.4071C44.0547 77.6901 43.5124 78.0312 42.9019 78.362L41.9367 78.8974C41.5956 79.0816 41.2545 79.2385 40.8725 79.4397C40.1427 79.8251 39.3377 80.1866 38.4851 80.5754C36.6408 81.3849 34.7568 82.1009 32.8404 82.7206C30.9175 83.3209 28.9652 83.8229 26.9911 84.2246C26.0805 84.3951 25.2142 84.5656 24.3956 84.6714C23.9863 84.7293 23.5941 84.7975 23.2121 84.8419L22.1173 84.9612C21.4352 85.0499 20.7871 85.0806 20.2312 85.1249C19.6752 85.1693 19.208 85.1897 18.8021 85.2L17.8983 85.2239H17.6664C17.6451 85.2282 17.6232 85.2294 17.6016 85.2273Z" fill="#263238"/>
<path id="Vector_30" d="M19.2432 68.5534C19.3305 68.5453 19.4184 68.5453 19.5058 68.5534L20.2664 68.5875C20.6074 68.6046 20.9962 68.625 21.4635 68.6353C21.9308 68.6455 22.4662 68.6728 23.0529 68.6728C24.2296 68.6898 25.6348 68.6728 27.1866 68.6046C28.7385 68.5364 30.4506 68.3965 32.2344 68.1851C34.0182 67.9736 35.7064 67.6872 37.2344 67.3939C38.7624 67.1006 40.1267 66.7766 41.2658 66.4764C41.8388 66.34 42.3504 66.1865 42.8006 66.0638C43.2508 65.941 43.6397 65.8284 43.9534 65.7227L44.6833 65.5113C44.7671 65.4811 44.8541 65.4605 44.9425 65.4499C44.8614 65.4864 44.7783 65.5183 44.6935 65.5454L43.9739 65.7875C43.6635 65.8932 43.2918 66.0194 42.8279 66.149C42.3641 66.2786 41.8695 66.4423 41.2999 66.589C40.1608 66.9028 38.7931 67.2302 37.2651 67.5439C35.7371 67.8577 34.042 68.1408 32.2685 68.3624C30.4949 68.5841 28.7692 68.7035 27.2105 68.7683C25.6518 68.8331 24.2432 68.8331 23.0665 68.7956C22.4765 68.7956 21.941 68.7546 21.4737 68.7342C21.0065 68.7137 20.604 68.683 20.2766 68.6557L19.5194 68.5909C19.4266 68.5849 19.3343 68.5724 19.2432 68.5534V68.5534Z" fill="#263238"/>
<g id="Group_2" opacity="0.4">
<path id="Vector_31" opacity="0.4" d="M60.9186 51.2895C53.4151 61.3914 41.3345 69.4811 28.7594 69.6755C26.6618 69.7062 24.3699 69.6755 22.7259 70.968C21.5492 71.9059 22.4531 75.2073 21.1536 77.9459C19.5199 81.3973 19.5199 81.6974 17.1324 84.8453C15.9728 86.3664 15.0042 88.3104 15.5055 90.152C16.099 92.3348 18.2 93.6989 20.1406 94.8585L31.1093 101.413C32.5316 102.263 34.0221 103.119 35.6762 103.265C37.7806 103.426 39.769 102.358 41.5733 101.263C58.3703 90.999 71.408 75.5902 78.7495 57.3261" fill="url(#paint1_linear_310_702)"/>
</g>
<path id="Vector_32" d="M102.166 30.24C102.166 30.24 102.722 27.1331 102.985 26.8534L108.148 27.9584L106.157 31.9316L102.166 30.24Z" fill="#FFBE9D"/>
<path id="Vector_33" d="M108.063 28.2892C108.063 28.2892 108.063 28.3336 108.036 28.3881C107.855 28.8486 106.832 30.7414 106.556 30.7005C106.28 30.6595 105.676 30.1684 105.761 29.8922C105.846 29.6159 107.125 27.5526 107.125 27.5526C107.125 27.5526 107.35 27.2388 107.961 27.4537C108.326 27.5867 108.063 28.2892 108.063 28.2892Z" fill="#FFBE9D"/>
<path id="Vector_34" d="M107.279 27.0069C107.276 27.0413 107.267 27.0748 107.251 27.1058C107.071 27.5662 106.047 29.459 105.771 29.4181C105.495 29.3772 104.888 28.8861 104.977 28.6098C105.065 28.3336 106.341 26.2702 106.341 26.2702C106.341 26.2702 106.562 25.9565 107.173 26.1713C107.545 26.3043 107.279 27.0069 107.279 27.0069Z" fill="#FFBE9D"/>
<path id="Vector_35" d="M106.337 26.0724C106.337 26.0724 106.337 26.1133 106.309 26.1713C106.129 26.6317 105.105 28.5211 104.829 28.4836C104.553 28.4461 103.949 27.9482 104.035 27.6719C104.12 27.3957 105.399 25.3324 105.399 25.3324C105.399 25.3324 105.62 25.0186 106.231 25.2334C106.62 25.3903 106.337 26.0724 106.337 26.0724Z" fill="#FFBE9D"/>
<path id="Vector_36" d="M105.392 25.1789C105.392 25.1789 105.392 25.2232 105.365 25.2778C105.184 25.7382 104.161 27.631 103.885 27.5901C103.609 27.5491 103.005 27.0546 103.09 26.7818C103.175 26.509 104.454 24.4422 104.454 24.4422C104.454 24.4422 104.676 24.1284 105.287 24.3399C105.662 24.4729 105.392 25.1789 105.392 25.1789Z" fill="#FFBE9D"/>
<path id="Vector_37" d="M106.044 29.3297C106.272 29.0651 106.466 28.7729 106.62 28.4599C106.81 28.1691 106.961 27.8549 107.071 27.5253C106.843 27.7945 106.651 28.0913 106.498 28.4087C106.308 28.6951 106.155 29.0046 106.044 29.3297Z" fill="#EB996E"/>
<path id="Vector_38" d="M104.915 28.7496C105.219 28.3549 105.485 27.9324 105.71 27.4877C105.978 27.0666 106.206 26.6213 106.392 26.1576C106.088 26.5586 105.822 26.9867 105.597 27.4365C105.333 27.8541 105.105 28.2933 104.915 28.7496Z" fill="#EB996E"/>
<g id="Group_3" opacity="0.78">
<path id="Vector_39" opacity="0.78" d="M103.823 28.0607C104.124 27.6629 104.39 27.2396 104.618 26.7955C104.883 26.3725 105.111 25.9275 105.3 25.4654C104.996 25.8616 104.73 26.2851 104.505 26.7307C104.235 27.1509 104.007 27.5964 103.823 28.0607V28.0607Z" fill="#EB996E"/>
</g>
<path id="Vector_40" d="M102.739 30.7379L102.459 28.9815C102.337 28.2143 102.517 27.4296 102.961 26.792L103.302 26.3043L106.961 28.4597C106.961 28.4597 105.938 29.6261 105.038 28.8383L105.631 30.3764L102.739 30.7379Z" fill="#FFBE9D"/>
<path id="Vector_41" d="M105.256 30.506C105.265 30.3265 105.265 30.1467 105.256 29.9672C105.217 29.4949 105.004 29.0539 104.659 28.7292L104.366 28.4563L104.738 28.6064L105.693 28.9884H105.675C105.889 29.0403 106.113 29.0304 106.322 28.9597C106.53 28.8891 106.714 28.7606 106.852 28.5893C106.872 28.5612 106.889 28.5315 106.903 28.5007L106.944 28.6132C105.887 28.0471 104.939 27.5253 104.277 27.1058C103.936 26.8977 103.684 26.7238 103.503 26.5976C103.406 26.5389 103.318 26.4678 103.24 26.3862C103.617 26.5716 103.983 26.7765 104.338 27.0001C105.021 27.3889 105.969 27.8936 107.03 28.4597L107.101 28.4973L107.067 28.5723C107.047 28.6125 107.024 28.6513 106.999 28.6882C106.845 28.9051 106.621 29.0619 106.364 29.1316C106.13 29.1919 105.886 29.2001 105.648 29.1555H105.631L104.68 28.753L104.758 28.6303C105.121 28.9831 105.33 29.4646 105.341 29.9706C105.346 30.1082 105.332 30.2458 105.3 30.3798C105.293 30.4446 105.273 30.506 105.256 30.506Z" fill="#EB996E"/>
<path id="Vector_42" d="M106.335 28.9987C106.369 28.9987 106.277 29.1931 106.362 29.466C106.382 29.5364 106.424 29.5986 106.481 29.6434C106.539 29.6882 106.61 29.7133 106.683 29.715C106.778 29.7003 106.87 29.6645 106.95 29.6102C107.03 29.5559 107.097 29.4846 107.146 29.4012C107.416 29.026 107.682 28.6952 107.829 28.4462C107.975 28.1972 108.084 28.0266 108.108 28.0368C108.09 28.2052 108.032 28.3667 107.938 28.5076C107.739 28.8544 107.518 29.1883 107.276 29.507C107.212 29.612 107.124 29.7003 107.019 29.7649C106.914 29.8295 106.795 29.8685 106.672 29.8787C106.615 29.8789 106.557 29.8675 106.504 29.8453C106.451 29.823 106.402 29.7903 106.362 29.7491C106.295 29.6802 106.249 29.594 106.229 29.5001C106.199 29.3734 106.206 29.2409 106.249 29.1181C106.297 29.0328 106.325 28.9953 106.335 28.9987Z" fill="#EB996E"/>
<path id="Vector_43" d="M72.1487 36.4505C72.1721 36.5684 72.1604 36.6905 72.115 36.8017C72.0696 36.913 71.9926 37.0085 71.8935 37.0764C71.7944 37.1443 71.6775 37.1816 71.5573 37.1837C71.4372 37.1858 71.3191 37.1526 71.2176 37.0883C70.8356 36.8461 70.839 36.2834 70.9618 35.8469C71.0846 35.4103 71.2858 34.9499 71.1392 34.5202C70.9817 34.211 70.773 33.9308 70.5219 33.6914C70.3316 33.4556 70.1987 33.1788 70.1336 32.8829C70.0685 32.587 70.073 32.2801 70.1467 31.9862C70.2266 31.6935 70.3863 31.4289 70.608 31.2217C70.8296 31.0145 71.1044 30.873 71.4018 30.813C72.0089 30.7038 72.7183 30.9596 73.2026 30.5742C73.5437 30.2946 73.6221 29.7898 73.9086 29.4419C74.3486 28.9065 75.1672 28.8963 75.8425 29.0566C76.5178 29.2169 77.4523 30.3491 78.1413 30.2468C78.7143 30.165 78.9564 28.9781 79.5056 28.7905C80.1055 28.5838 80.7552 28.5702 81.3633 28.7514C81.9715 28.9326 82.5077 29.2997 82.8966 29.8011C83.2856 30.3025 83.5078 30.913 83.5321 31.5471C83.5564 32.1812 83.3816 32.807 83.0322 33.3367C82.8005 33.7273 82.438 34.0233 82.009 34.1723" fill="url(#paint2_linear_310_702)"/>
<path id="Vector_44" d="M71.0264 48.2099L77.5748 48.6942C77.7317 47.9438 78.1308 45.0177 78.1308 45.0177C78.1308 45.0177 80.8832 45.0177 81.3334 42.3302C81.7836 39.6427 82.2747 33.3947 82.2747 33.3947C80.8469 32.5016 79.2067 32.0055 77.5232 31.9575C75.8397 31.9096 74.1739 32.3115 72.6976 33.1219L72.2508 33.3674L71.0264 48.2099Z" fill="#FFBE9D"/>
<path id="Vector_45" d="M80.5115 37.6957C80.4621 37.6349 80.4319 37.5609 80.4246 37.4829C80.4173 37.4049 80.4333 37.3265 80.4706 37.2576C80.5078 37.1887 80.5647 37.1324 80.6339 37.0959C80.7032 37.0593 80.7817 37.0442 80.8595 37.0523C80.9374 37.0604 81.0111 37.0915 81.0713 37.1415C81.1315 37.1916 81.1756 37.2584 81.1978 37.3335C81.2201 37.4086 81.2196 37.4886 81.1963 37.5634C81.1731 37.6382 81.1283 37.7045 81.0674 37.7537C80.986 37.8197 80.8817 37.8507 80.7775 37.8398C80.6732 37.8289 80.5776 37.7771 80.5115 37.6957V37.6957Z" fill="#263238"/>
<path id="Vector_46" d="M81.6884 37.4101C81.6373 37.4511 81.4054 37.2084 81.0336 37.1468C80.6618 37.0853 80.3515 37.2391 80.331 37.1844C80.3105 37.1297 80.3719 37.0819 80.5015 37.0101C80.6777 36.9218 80.8773 36.8917 81.0715 36.9243C81.2658 36.9568 81.4448 37.0503 81.5827 37.1913C81.685 37.3041 81.7225 37.393 81.6884 37.4101Z" fill="#263238"/>
<path id="Vector_47" d="M77.0536 36.8632C77.1134 36.9139 77.1569 36.9812 77.1784 37.0566C77.1999 37.132 77.1986 37.2121 77.1746 37.2867C77.1506 37.3613 77.105 37.4272 77.0435 37.4758C76.9821 37.5245 76.9076 37.5538 76.8294 37.56C76.7513 37.5662 76.6731 37.5491 76.6047 37.5108C76.5364 37.4725 76.4809 37.4148 76.4454 37.3449C76.4098 37.275 76.3958 37.1962 76.4052 37.1183C76.4145 37.0404 76.4467 36.9671 76.4977 36.9076C76.5311 36.8679 76.5721 36.8353 76.6182 36.8115C76.6643 36.7878 76.7147 36.7734 76.7664 36.7693C76.8181 36.7652 76.8701 36.7714 76.9194 36.7875C76.9687 36.8036 77.0144 36.8293 77.0536 36.8632V36.8632Z" fill="#263238"/>
<path id="Vector_48" d="M77.6297 37.0518C77.582 37.0963 77.3296 36.874 76.9476 36.8501C76.5656 36.8262 76.2893 37.004 76.2655 36.9527C76.2416 36.9014 76.2928 36.8467 76.4189 36.7646C76.5851 36.6579 76.7816 36.6087 76.9783 36.6245C77.1745 36.6381 77.3611 36.7148 77.5104 36.8433C77.6297 36.9424 77.657 37.0313 77.6297 37.0518Z" fill="#263238"/>
<path id="Vector_49" d="M78.626 40.3964C78.8281 40.3484 79.0371 40.3369 79.2433 40.3623C79.3422 40.3623 79.4207 40.3623 79.4377 40.3043C79.4534 40.2081 79.444 40.1094 79.4104 40.0179L79.2331 39.2198C78.9943 38.0841 78.8477 37.153 78.892 37.1428C78.9363 37.1326 79.1887 38.0398 79.4275 39.1891C79.4855 39.4654 79.5366 39.728 79.5878 39.9906C79.6338 40.1231 79.6338 40.2673 79.5878 40.3998C79.5683 40.4349 79.5409 40.4649 79.5077 40.4874C79.4746 40.5099 79.4365 40.5243 79.3968 40.5294C79.3403 40.5382 79.2828 40.5382 79.2262 40.5294C79.0199 40.521 78.8166 40.476 78.626 40.3964Z" fill="#263238"/>
<path id="Vector_50" d="M77.3568 40.6215C77.8963 40.969 78.4803 41.242 79.0928 41.4333C78.9381 41.6103 78.7272 41.7287 78.4955 41.7684C78.2638 41.8082 78.0255 41.7669 77.8207 41.6516C77.0601 41.2321 77.3568 40.6215 77.3568 40.6215Z" fill="white"/>
<path id="Vector_51" d="M78.1418 44.9767C76.8959 44.8094 75.7285 44.2738 74.7891 43.4386C74.7891 43.4386 75.3177 45.5019 78.0394 45.6759L78.1418 44.9767Z" fill="#EB996E"/>
<path id="Vector_52" d="M82.224 34.0802C82.224 34.0802 80.5186 34.7623 78.4484 33.5039C77.0841 32.6888 75.4777 32.2113 75.0923 32.4807C74.7069 32.7501 74.5159 34.186 73.0834 34.4963C73.0834 34.4963 72.9572 37.2759 71.8624 37.0883C70.7676 36.9007 71.7976 32.6547 71.7976 32.6547L74.608 31.5497L77.6025 31.2291L80.3515 31.843L82.4559 32.6035L82.224 34.0802Z" fill="url(#paint3_linear_310_702)"/>
<path id="Vector_53" d="M72.1524 36.2049C72.1081 36.1777 70.3891 35.3728 70.1606 37.2281C69.9321 39.0834 71.8387 38.9334 71.8489 38.8686C71.8591 38.8038 72.1524 36.2049 72.1524 36.2049Z" fill="#FFBE9D"/>
<path id="Vector_54" d="M71.3675 38.0911C71.3675 38.0911 71.3334 38.1116 71.2754 38.1287C71.1945 38.1507 71.1083 38.1422 71.0333 38.1048C70.9241 38.0136 70.8408 37.8954 70.7917 37.7619C70.7426 37.6284 70.7295 37.4843 70.7536 37.3441C70.7697 37.1853 70.8197 37.0318 70.9002 36.8939C70.9248 36.8383 70.9625 36.7894 71.01 36.7514C71.0575 36.7134 71.1134 36.6874 71.1731 36.6756C71.2112 36.6706 71.2498 36.6791 71.2822 36.6997C71.3146 36.7203 71.3388 36.7516 71.3505 36.7882C71.3709 36.8427 71.3505 36.8803 71.3505 36.8837C71.3505 36.8871 71.3948 36.8564 71.388 36.7779C71.3827 36.7317 71.3623 36.6886 71.33 36.6551C71.2833 36.6104 71.2207 36.5858 71.156 36.5869C71.0781 36.5921 71.0028 36.6174 70.9377 36.6605C70.8725 36.7036 70.8196 36.7628 70.7843 36.8325C70.6867 36.9831 70.627 37.1552 70.6103 37.3339C70.5817 37.4969 70.6018 37.6646 70.6679 37.8162C70.734 37.9679 70.8433 38.0967 70.9821 38.1866C71.0288 38.2095 71.0801 38.2214 71.1322 38.2214C71.1842 38.2214 71.2355 38.2095 71.2822 38.1866C71.3607 38.1355 71.3743 38.098 71.3675 38.0911Z" fill="#EB996E"/>
<path id="Vector_55" d="M71.7875 30.3117C71.7875 30.3697 72.0672 30.3868 72.3605 30.5335C72.6538 30.6803 72.838 30.8748 72.8858 30.8543C72.9335 30.8338 72.8039 30.513 72.4526 30.3492C72.1013 30.1854 71.7739 30.2571 71.7875 30.3117Z" fill="url(#paint4_linear_310_702)"/>
<path id="Vector_56" d="M73.0126 29.3123C72.8491 29.5697 72.7826 29.8768 72.825 30.1787C72.825 30.6938 73.1081 31.0383 73.1661 31.0042C73.224 30.9701 73.0569 30.629 73.0433 30.1685C73.0296 29.708 73.074 29.326 73.0126 29.3123Z" fill="url(#paint5_linear_310_702)"/>
<path id="Vector_57" d="M79.9796 36.5263C80.0205 36.6357 80.3854 36.5981 80.8118 36.6494C81.2381 36.7006 81.5894 36.81 81.6542 36.7109C81.719 36.6117 81.395 36.2972 80.8561 36.2391C80.3172 36.181 79.9318 36.4271 79.9796 36.5263Z" fill="#263238"/>
<path id="Vector_58" d="M75.9038 35.5441C75.9448 35.6535 76.3131 35.6124 76.7395 35.6637C77.1658 35.715 77.5171 35.8244 77.5785 35.7287C77.6399 35.6329 77.3193 35.3116 76.7838 35.2569C76.2483 35.2022 75.8595 35.4415 75.9038 35.5441Z" fill="#263238"/>
<path id="Vector_59" d="M64.2671 75.7564L55.3209 70.0677C51.7568 75.9031 54.0112 81.5269 54.0658 88.6992L54.0044 93.6239L30.0615 96.1443L30.348 102.839L59.0283 102.423C60.5644 102.341 62.0101 101.672 63.0655 100.553C64.121 99.434 64.7051 97.9518 64.6969 96.4137C64.6559 88.3036 65.1675 76.5203 65.2937 77.0967" fill="url(#paint6_linear_310_702)"/>
<path id="Vector_60" d="M71.4056 44.663C71.4056 44.663 69.0556 42.9577 66.0031 44.8778C62.9505 46.7979 54.9252 61.5892 54.9252 61.5892L48.7383 66.8277L64.6865 78.0824C64.6865 78.0824 77.306 62.285 78.3292 59.8635L79.1785 48.5066L71.4056 44.663Z" fill="url(#paint7_linear_310_702)"/>
<path id="Vector_61" d="M78.9874 48.4998L90.935 41.3071L102.033 29.7967L106.157 31.9316L94.5469 48.759L78.1416 59.8567L78.9874 48.4998Z" fill="url(#paint8_linear_310_702)"/>
<path id="Vector_62" d="M28.6631 95.6463L44.9797 94.4185L44.8876 99.7901L50.7881 103.323L31.0062 102.556C31.0062 102.556 29.5089 108.194 29.1338 107.331C28.7586 106.468 28.6631 95.6463 28.6631 95.6463Z" fill="url(#paint9_linear_310_702)"/>
<path id="Vector_63" d="M47.8682 66.6947C47.8682 66.6947 53.639 68.6285 55.7468 71.9605C56.0822 72.5045 56.2929 73.116 56.3636 73.7511C56.4344 74.3862 56.3635 75.0291 56.1561 75.6336L54.6383 79.2998C54.6383 79.2998 61.4904 75.3675 65.2421 77.997L66.7701 75.446L50.5421 64.5052C50.5421 64.5052 48.639 65.3476 47.8682 66.6947Z" fill="url(#paint10_linear_310_702)"/>
<path id="Vector_64" d="M48.021 66.2923L33.57 92.952L14.7432 107.157L17.8128 112.924L35.5789 102.825C38.7577 101.379 41.8818 99.0739 43.8259 96.1681L48.0517 89.869L55.6371 77.3764C57.489 74.4979 56.5784 71.79 53.7714 69.8358L48.021 66.2923Z" fill="url(#paint11_linear_310_702)"/>
<path id="Vector_65" d="M11.2031 109.169L23.9829 99.4182L26.7524 102.979L34.5798 103.661L17.1411 113.381C17.1411 113.381 19.2455 118.821 18.4303 118.336C17.6152 117.852 11.2031 109.169 11.2031 109.169Z" fill="url(#paint12_linear_310_702)"/>
<path id="Vector_66" d="M76.9072 29.6875C77.3745 29.9297 78.3568 29.9638 78.7831 29.5511C78.9093 29.3921 78.9895 29.2014 79.0147 28.9999C79.04 28.7984 79.0094 28.5939 78.9263 28.4086C78.807 28.1903 78.558 28.0914 78.5648 27.839C78.5648 27.6514 78.8274 27.498 78.9843 27.4093C79.1475 27.314 79.3287 27.2536 79.5164 27.232C80.4853 27.0639 81.4823 27.2555 82.3199 27.7708C82.7325 28.0316 83.0853 28.3767 83.3551 28.7834C83.6249 29.1902 83.8056 29.6494 83.8854 30.1309C84.0287 31.0927 83.8343 32.5455 83.1146 33.2003C82.395 33.8552 81.1569 33.671 80.2497 33.3231" fill="url(#paint13_linear_310_702)"/>
<path id="Vector_67" d="M80.1744 27.232C79.8904 27.1472 79.5919 27.1228 79.2979 27.1603C79.0019 27.2015 78.7306 27.348 78.5339 27.5731C78.3907 27.7436 78.3088 27.9585 78.1553 28.1188C78.0877 28.196 78.0035 28.257 77.909 28.2972C77.8145 28.3373 77.7122 28.3556 77.6096 28.3507C77.5069 28.3426 77.4097 28.3008 77.3332 28.2317C77.2567 28.1626 77.2052 28.0701 77.1867 27.9687C77.1805 27.9195 77.1846 27.8696 77.1988 27.822C77.2129 27.7745 77.2368 27.7304 77.2688 27.6926C77.3009 27.6547 77.3405 27.6239 77.385 27.6022C77.4296 27.5805 77.4782 27.5682 77.5278 27.5662C77.5572 27.5697 77.587 27.5697 77.6164 27.5662C77.6471 27.5662 77.671 27.5219 77.6574 27.4946C77.6496 27.4851 77.6397 27.4777 77.6284 27.4729C77.6171 27.4681 77.6048 27.4662 77.5926 27.4673C77.4432 27.4645 77.2964 27.507 77.1716 27.5892C77.0468 27.6714 76.9498 27.7894 76.8934 27.9278C76.842 28.0683 76.8295 28.2201 76.8571 28.3672C76.8847 28.5142 76.9514 28.6511 77.0503 28.7635C77.1503 28.8742 77.2749 28.96 77.4141 29.0139C77.5533 29.0678 77.7032 29.0884 77.8518 29.0739C78.1509 29.0403 78.4244 28.8894 78.6124 28.6543C78.7333 28.4634 78.8702 28.2832 79.0216 28.1154C79.1133 28.0416 79.2201 27.9886 79.3344 27.9604C79.4487 27.9321 79.5677 27.9291 79.6833 27.9517C79.9161 27.997 80.1231 28.1286 80.2631 28.32C80.3245 28.4019 80.3893 28.5008 80.4882 28.5042" fill="url(#paint14_linear_310_702)"/>
<path id="Vector_68" d="M97.8311 34.1519L99.0316 39.9872L101.692 38.4047L106.156 31.9316L102.033 29.7967L97.8311 34.1519Z" fill="url(#paint15_linear_310_702)"/>
<path id="Vector_69" d="M77.316 27.7163C77.2766 27.7331 77.2389 27.7537 77.2034 27.7776C77.1584 27.8207 77.126 27.8752 77.1098 27.9353C77.0935 27.9954 77.0941 28.0589 77.1113 28.1187C77.1379 28.2107 77.1956 28.2907 77.2746 28.3448C77.3537 28.3989 77.4491 28.4239 77.5445 28.4154C77.8112 28.4033 78.0686 28.3132 78.2846 28.1562C78.537 27.9959 78.7894 27.7742 79.0827 27.556C79.3932 27.295 79.7824 27.1461 80.1878 27.1331C80.4111 27.1507 80.6288 27.2122 80.8283 27.3141C81.0279 27.4159 81.2054 27.556 81.3508 27.7265C81.6704 28.076 81.9039 28.4952 82.0329 28.9508C82.287 29.8288 82.1917 30.771 81.7669 31.5803C81.4638 32.1172 81.0224 32.563 80.4885 32.8713C79.9547 33.1796 79.3479 33.3392 78.7314 33.3333C78.5975 33.3311 78.464 33.3174 78.3324 33.2924C78.2437 33.2924 78.1959 33.2651 78.1993 33.2583C78.2028 33.2515 78.3903 33.2583 78.728 33.2583C79.2081 33.2409 79.6794 33.1248 80.1127 32.9172C80.7553 32.6179 81.284 32.1191 81.6202 31.4951C82.0169 30.7219 82.1035 29.8266 81.8624 28.9918C81.7457 28.564 81.5308 28.1692 81.2348 27.839C80.9786 27.5293 80.6113 27.3323 80.2116 27.2899C79.8379 27.2984 79.4777 27.4316 79.1884 27.6685C78.9019 27.8765 78.6393 28.0982 78.3699 28.2585C78.1301 28.4205 77.8475 28.5072 77.5581 28.5075C77.4434 28.5123 77.3307 28.4762 77.2401 28.4056C77.1495 28.335 77.0869 28.2345 77.0636 28.1221C77.0504 28.0526 77.0561 27.9808 77.0801 27.9142C77.1041 27.8476 77.1455 27.7887 77.2 27.7435C77.2344 27.7213 77.2753 27.7117 77.316 27.7163V27.7163Z" fill="#263238"/>
<path id="Vector_70" d="M82.2278 31.6247C82.1981 31.8226 82.1221 32.0108 82.0061 32.1738C81.76 32.5883 81.4304 32.9469 81.0381 33.227C80.6459 33.5071 80.1996 33.7024 79.7277 33.8006C79.5359 33.855 79.3345 33.8666 79.1377 33.8347C79.777 33.6944 80.3858 33.4403 80.9351 33.0844C81.4517 32.681 81.8898 32.1863 82.2278 31.6247V31.6247Z" fill="#263238"/>
<path id="Vector_71" d="M51.5209 65.0577L51.422 64.0686L51.4663 64.0106H51.4151L51.098 53.0527L61.8415 51.3475L69.5258 43.9808C69.5258 43.9808 66.0912 42.6746 63.9255 42.9816C56.422 44.0422 45.7773 47.2651 45.3442 48.4179C44.7336 50.0515 45.8933 59.7134 46.132 62.7215C46.2412 64.1095 45.8796 65.1497 46.0331 65.8114C45.4645 65.3687 44.8687 64.9621 44.2493 64.5938C43.6252 64.2698 44.7405 66.2309 45.0338 66.6811C45.1497 66.8584 45.6784 66.93 46.306 66.9471H46.6743C47.359 66.9471 48.0428 66.8992 48.7207 66.8038C48.9219 66.7629 49.4677 66.2172 50.0202 65.6204L51.5209 65.0577Z" fill="url(#paint16_linear_310_702)"/>
<path id="Vector_72" d="M51.3674 62.1008L46.1389 62.7419L46.0058 65.6852L46.04 65.8318C45.4713 65.3892 44.8756 64.9826 44.2562 64.6143C43.632 64.2903 44.7473 66.2513 45.0406 66.7015C45.1566 66.8788 45.6852 66.9505 46.3128 66.9675H46.6812C47.3658 66.9675 48.0496 66.9196 48.7276 66.8243C48.9288 66.7833 49.4745 66.2377 50.027 65.6408L51.5107 65.0542L51.3674 62.1008Z" fill="#FFBE9D"/>
<path id="Vector_73" d="M46.1326 62.742L51.3612 62.1008L51.1804 55.8494L48.5269 52.2615L45.5732 56.8759L46.1326 62.742Z" fill="url(#paint17_linear_310_702)"/>
<path id="Vector_74" d="M50.9756 84.9749C51.1643 84.621 51.375 84.2793 51.6066 83.9517L53.1857 81.4996C53.8064 80.5447 54.3692 79.6818 54.7853 79.0646C54.9953 78.7188 55.2325 78.3904 55.4947 78.0823C55.3179 78.4459 55.1162 78.7969 54.891 79.1328C54.5022 79.7671 53.9531 80.6402 53.3358 81.5985C52.7184 82.5569 52.1386 83.4095 51.7089 84.02C51.494 84.3269 51.3166 84.569 51.1905 84.7362C51.1296 84.8248 51.0574 84.9051 50.9756 84.9749V84.9749Z" fill="#263238"/>
<path id="Vector_75" d="M55.9857 96.6456C55.4141 96.345 54.9318 95.8992 54.5873 95.353C54.1935 94.8402 53.9439 94.2315 53.8643 93.5898C54.112 94.1645 54.4027 94.7197 54.734 95.2507C55.116 95.7461 55.5344 96.2124 55.9857 96.6456V96.6456Z" fill="#263238"/>
<path id="Vector_76" d="M80.1232 54.2328C80.1329 54.3041 80.1329 54.3764 80.1232 54.4476C80.1232 54.5875 80.1232 54.7887 80.0755 55.0649C79.9735 55.8164 79.7999 56.5565 79.557 57.2749C79.1834 58.3358 78.7035 59.3562 78.1246 60.3205C77.4157 61.5021 76.6379 62.6409 75.7951 63.731C74.0113 66.0433 72.3844 68.1135 71.1873 69.6141L69.7855 71.3705L69.3967 71.8445C69.353 71.9025 69.3039 71.9562 69.25 72.0048C69.25 72.0048 69.2841 71.9366 69.366 71.8241C69.4478 71.7115 69.5842 71.5308 69.7309 71.3261L71.0952 69.522L75.6586 63.6082C76.497 62.5283 77.2758 61.4034 77.9915 60.2386C78.5719 59.2852 79.0585 58.2779 79.4445 57.2306C79.6978 56.5255 79.8895 55.7998 80.0175 55.0615C80.0618 54.7989 80.0755 54.5909 80.0993 54.4511C80.0998 54.3777 80.1078 54.3045 80.1232 54.2328V54.2328Z" fill="#263238"/>
<path id="Vector_77" d="M64.612 57.1454C64.2441 56.6302 63.9244 56.0822 63.657 55.5083C63.3371 54.9662 63.0688 54.3953 62.8555 53.8031C63.2238 54.3187 63.5446 54.8666 63.8139 55.4401C64.1332 55.982 64.4005 56.553 64.612 57.1454V57.1454Z" fill="#263238"/>
<path id="Vector_78" d="M76.108 62.0707C74.978 62.0926 73.8488 61.9975 72.7383 61.7871C73.8684 61.7607 74.9981 61.8558 76.108 62.0707V62.0707Z" fill="#263238"/>
<path id="Vector_79" d="M65.6615 43.4898C65.6615 43.4898 65.699 43.4898 65.7672 43.5239C65.866 43.5705 65.955 43.6353 66.0298 43.7149C66.2979 44.015 66.4555 44.3976 66.4766 44.7994C66.5354 46.1051 66.1874 47.3968 65.4807 48.4963C64.7823 49.6006 63.769 50.4702 62.5714 50.9928C62.2137 51.1499 61.8412 51.271 61.4595 51.3543C61.3212 51.3957 61.1776 51.4164 61.0332 51.4157C61.5404 51.2695 62.0372 51.0895 62.5203 50.8768C63.6728 50.3361 64.6476 49.4785 65.3306 48.4043C66.0155 47.3317 66.3712 46.0821 66.3538 44.8097C66.345 44.4288 66.2148 44.0608 65.9821 43.7592C65.8843 43.6592 65.7769 43.5689 65.6615 43.4898V43.4898Z" fill="#263238"/>
<path id="Vector_80" d="M66.7733 75.446L67.6362 74.3512L52.5883 63.5741L50.0371 65.6443L66.7733 75.446Z" fill="url(#paint18_linear_310_702)"/>
<g id="Group_4" opacity="0.4">
<path id="Vector_81" opacity="0.4" d="M44.7927 60.8355C44.626 60.9407 44.4502 61.0308 44.2675 61.1049C43.9264 61.2686 43.4217 61.4903 42.7975 61.7563C41.5492 62.2883 39.7961 62.967 37.8248 63.6082C35.8534 64.2493 34.0355 64.7234 32.7088 65.0303C32.0471 65.1804 31.5082 65.2929 31.133 65.3714C30.9409 65.4149 30.746 65.4456 30.5498 65.4635C30.7351 65.395 30.9256 65.3414 31.1194 65.3032L32.6781 64.9144C33.9912 64.5733 35.7988 64.0822 37.7668 63.4445C39.7347 62.8067 41.4878 62.1485 42.7463 61.6472L44.2368 61.0469C44.4172 60.9642 44.6029 60.8935 44.7927 60.8355Z" fill="white"/>
</g>
<g id="Group_5" opacity="0.4">
<path id="Vector_82" opacity="0.4" d="M28.1075 65.5727C28.0488 65.5965 27.9884 65.6159 27.9268 65.6307L27.3981 65.7671C27.1662 65.8285 26.8865 65.8967 26.5523 65.9547C26.218 66.0126 25.8463 66.1013 25.4233 66.1525C25.0004 66.2036 24.5434 66.2787 24.0591 66.3128C23.5748 66.3469 23.0359 66.3844 22.4663 66.4083C21.2461 66.4304 20.0258 66.3712 18.8135 66.2309C17.5994 66.0791 16.3972 65.8444 15.2152 65.5283C14.6763 65.3715 14.1613 65.2282 13.6907 65.0577C13.22 64.8872 12.7834 64.7166 12.3912 64.57C11.999 64.4233 11.6477 64.246 11.3407 64.1096C11.0338 63.9731 10.7745 63.8401 10.5665 63.7242L10.0856 63.465C10.0266 63.4384 9.97158 63.404 9.92188 63.3626C9.98422 63.3809 10.0447 63.4048 10.1026 63.4343L10.5972 63.6628C10.8086 63.7685 11.0713 63.8913 11.3816 64.0038C11.692 64.1164 12.0365 64.2971 12.4355 64.437C12.8346 64.5768 13.2643 64.7541 13.7384 64.9042C14.2125 65.0543 14.7207 65.2043 15.2562 65.3578C16.4303 65.6577 17.6217 65.8854 18.8237 66.0399C20.0271 66.1783 21.238 66.2409 22.4493 66.2275C23.0052 66.207 23.5373 66.1968 24.0318 66.1491C24.5263 66.1013 24.9868 66.0638 25.3961 66.0092C25.8053 65.9547 26.1942 65.8933 26.525 65.8421C26.8558 65.791 27.1423 65.733 27.3708 65.6852L27.9063 65.5795C27.9726 65.5663 28.0405 65.564 28.1075 65.5727V65.5727Z" fill="white"/>
</g>
<g id="Group_6" opacity="0.4">
<path id="Vector_83" opacity="0.4" d="M54.1611 57.6092C54.1816 57.6537 53.9565 57.8006 53.6631 57.934C53.3698 58.0673 53.1106 58.1425 53.0902 58.098C53.0697 58.0536 53.2948 57.9066 53.5881 57.7562C53.8814 57.6058 54.1406 57.5648 54.1611 57.6092Z" fill="white"/>
</g>
<g id="Group_7">
<path id="Vector_84" d="M74.2569 52.0773C74.1794 51.7678 73.9898 51.4981 73.7248 51.3202C72.9267 50.8632 71.2453 51.7022 70.4813 53.0255C70.4058 53.157 70.3396 53.2938 70.2835 53.4347C69.806 54.6113 70.1982 55.6857 70.9656 56.1222C71.8149 56.6099 73.1211 56.3064 73.8851 54.9763C74.3793 54.0944 74.5125 53.0554 74.2569 52.0773V52.0773Z" fill="white"/>
</g>
</g>
<g id="&#208;&#161;&#208;&#162;&#208;&#144;&#208;&#157;&#208;&#172; &#208;&#167;&#208;&#144;&#208;&#161;&#208;&#162;&#208;&#172;&#208;&#174; &#208;&#154;&#208;&#158;&#208;&#156;&#208;&#144;&#208;&#157;&#208;&#148;&#208;&#171; &#208;&#156;&#208;&#147;&#208;&#162;&#208;&#161;">
<path d="M108.986 68.1798C112.317 68.1798 114.319 66.904 114.712 63.6584H111.494C111.232 65.2343 110.352 65.6846 108.986 65.6846C107.227 65.6846 106.273 64.8403 106.273 62.4014V60.4878C106.273 58.0301 107.283 57.2422 108.986 57.2422C110.408 57.2422 111.288 57.7299 111.475 59.2683H114.693C114.319 55.9852 112.354 54.7469 108.986 54.7469C105.169 54.7469 103.055 56.6606 103.055 61.4258C103.055 66.3224 105.169 68.1798 108.986 68.1798Z" fill="#201E1E"/>
<path d="M126.431 57.6361V54.9908H115.635V57.6361H119.471V67.9359H122.596V57.6361H126.431Z" fill="#201E1E"/>
<path d="M129.888 54.9908L125.828 67.9359H128.691L129.57 65.0842H134.472L135.389 67.9359H138.664L134.472 54.9908H129.888ZM131.984 57.2797L133.705 62.7016H130.3L131.984 57.2797Z" fill="#201E1E"/>
<path d="M151.181 67.9359V54.9908H148.056V60.0188H143.322V54.9908H140.197V67.9359H143.322V62.6641H148.056V67.9359H151.181Z" fill="#201E1E"/>
<path d="M164.271 63.3957C164.271 60.5441 162.83 58.8931 159.724 58.8931H156.917V54.9908H153.792V67.9359H159.724C162.83 67.9359 164.271 66.2474 164.271 63.3957ZM161.052 63.0393V63.771C161.052 64.6715 160.435 65.3281 159.368 65.3281H156.917V61.5009H159.368C160.491 61.5009 161.052 62.0825 161.052 63.0393Z" fill="#201E1E"/>
<path d="M114.132 73.9863H111.007V79.6521C110.371 79.7084 109.566 79.7459 108.855 79.7459C107.227 79.7459 106.479 79.2581 106.479 77.3633V73.9863H103.354V77.6822C103.354 81.1155 105.132 82.3162 108.593 82.3349C109.454 82.3349 110.352 82.2786 111.007 82.2223V86.9313H114.132V73.9863Z" fill="#201E1E"/>
<path d="M119.783 73.9863L115.723 86.9313H118.586L119.465 84.0797H124.367L125.284 86.9313H128.559L124.367 73.9863H119.783ZM121.879 76.2751L123.6 81.697H120.195L121.879 76.2751Z" fill="#201E1E"/>
<path d="M135.061 87.1752C138.392 87.1752 140.394 85.8995 140.787 82.6538H137.569C137.307 84.2298 136.427 84.68 135.061 84.68C133.303 84.68 132.348 83.8358 132.348 81.3969V79.4832C132.348 77.0256 133.359 76.2376 135.061 76.2376C136.484 76.2376 137.363 76.7254 137.55 78.2638H140.768C140.394 74.9806 138.429 73.7424 135.061 73.7424C131.244 73.7424 129.13 75.656 129.13 80.4213C129.13 85.3179 131.244 87.1752 135.061 87.1752Z" fill="#201E1E"/>
<path d="M152.507 76.6316V73.9863H141.71V76.6316H145.546V86.9313H148.671V76.6316H152.507Z" fill="#201E1E"/>
<path d="M164.673 82.3912C164.673 79.5395 163.232 77.8886 160.126 77.8886H157.319V73.9863H154.194V86.9313H160.126C163.232 86.9313 164.673 85.2429 164.673 82.3912ZM161.454 82.0347V82.7664C161.454 83.6669 160.837 84.3236 159.77 84.3236H157.319V80.4963H159.77C160.893 80.4963 161.454 81.0779 161.454 82.0347Z" fill="#201E1E"/>
<path d="M183.631 80.4213C183.631 75.5435 181.498 73.7424 177.475 73.7424C173.883 73.7424 171.787 75.2058 171.394 79.0142H169.617V73.9863H166.492V86.9313H169.617V81.5282H171.375C171.675 85.6744 173.771 87.1752 177.475 87.1752C181.498 87.1752 183.631 85.3929 183.631 80.4213ZM180.413 81.3031C180.413 83.817 179.459 84.68 177.475 84.68C175.492 84.68 174.556 83.817 174.556 81.3031V79.5771C174.556 77.2132 175.492 76.2376 177.475 76.2376C179.459 76.2376 180.413 77.2132 180.413 79.5771V81.3031Z" fill="#201E1E"/>
<path d="M193.517 73.9863H190.393V86.9313H193.517V81.7346H194.322L198.064 86.9313H201.713L196.904 80.2149L201.32 73.9863H197.971L194.341 79.0705H193.517V73.9863Z" fill="#201E1E"/>
<path d="M214.633 80.3275C214.633 75.5059 212.425 73.7424 208.29 73.7424C204.155 73.7424 201.965 75.5059 201.965 80.3275C201.965 85.3742 204.155 87.1752 208.29 87.1752C212.425 87.1752 214.633 85.3742 214.633 80.3275ZM211.415 81.2468C211.415 83.817 210.404 84.68 208.29 84.68C206.175 84.68 205.184 83.817 205.184 81.2468V79.6521C205.184 77.2319 206.175 76.2376 208.29 76.2376C210.404 76.2376 211.415 77.2319 211.415 79.6521V81.2468Z" fill="#201E1E"/>
<path d="M221.814 73.9863H216.705V86.9313H219.606V76.3689L222.113 85.2241H225.556L228.063 76.4252V86.9313H231.188V73.9863H226.435L224.115 82.2786L221.814 73.9863Z" fill="#201E1E"/>
<path d="M236.784 73.9863L232.724 86.9313H235.586L236.466 84.0797H241.368L242.285 86.9313H245.56L241.368 73.9863H236.784ZM238.88 76.2751L240.601 81.697H237.196L238.88 76.2751Z" fill="#201E1E"/>
<path d="M258.077 86.9313V73.9863H254.952V79.0142H250.218V73.9863H247.093V86.9313H250.218V81.6595H254.952V86.9313H258.077Z" fill="#201E1E"/>
<path d="M259.509 89.7455H262.447V86.9313H270.586V89.7455H273.524V84.286H271.84V73.9863H261.886V78.8829C261.886 81.5657 261.306 83.4606 260.838 84.286H259.509V89.7455ZM268.715 76.6316V84.286H263.906C264.337 83.4606 264.767 81.5845 264.767 78.8829V76.6316H268.715Z" fill="#201E1E"/>
<path d="M285.547 82.3912C285.547 79.5395 284.106 77.8886 281 77.8886H278.194V73.9863H275.069V86.9313H281C284.106 86.9313 285.547 85.2429 285.547 82.3912ZM282.329 82.0347V82.7664C282.329 83.6669 281.711 84.3236 280.645 84.3236H278.194V80.4963H280.645C281.767 80.4963 282.329 81.0779 282.329 82.0347ZM290 86.9313V73.9863H286.876V86.9313H290Z" fill="#201E1E"/>
<path d="M108.687 92.9817H103.579V105.927H106.479V95.3644L108.986 104.22H112.429L114.936 95.4207V105.927H118.061V92.9817H113.309L110.988 101.274L108.687 92.9817Z" fill="#201E1E"/>
<path d="M120.682 92.9817V105.927H123.807V95.627H129.458V92.9817H120.682Z" fill="#201E1E"/>
<path d="M141.452 95.627V92.9817H130.655V95.627H134.491V105.927H137.616V95.627H141.452Z" fill="#201E1E"/>
<path d="M148.181 106.171C151.512 106.171 153.514 104.895 153.907 101.649H150.689C150.427 103.225 149.547 103.675 148.181 103.675C146.422 103.675 145.468 102.831 145.468 100.392V98.4787C145.468 96.021 146.479 95.2331 148.181 95.2331C149.603 95.2331 150.483 95.7208 150.67 97.2592H153.888C153.514 93.9761 151.549 92.7379 148.181 92.7379C144.364 92.7379 142.25 94.6515 142.25 99.4167C142.25 104.313 144.364 106.171 148.181 106.171Z" fill="#201E1E"/>
</g>
</g>
<defs>
<linearGradient id="paint0_linear_310_702" x1="5.375" y1="77.9459" x2="78.4963" y2="77.9459" gradientUnits="userSpaceOnUse">
<stop stop-color="#017AC4"/>
<stop offset="0.01" stop-color="#027AC3"/>
<stop offset="0.02" stop-color="#0578C3"/>
<stop offset="0.03" stop-color="#0777C2"/>
<stop offset="0.04" stop-color="#0976C1"/>
<stop offset="0.05" stop-color="#0C75C0"/>
<stop offset="0.06" stop-color="#0D74C0"/>
<stop offset="0.07" stop-color="#1072BF"/>
<stop offset="0.08" stop-color="#1171BE"/>
<stop offset="0.09" stop-color="#1470BE"/>
<stop offset="0.1" stop-color="#166FBD"/>
<stop offset="0.11" stop-color="#186EBC"/>
<stop offset="0.12" stop-color="#1A6DBC"/>
<stop offset="0.13" stop-color="#1C6BBB"/>
<stop offset="0.14" stop-color="#1F6ABA"/>
<stop offset="0.15" stop-color="#2169BA"/>
<stop offset="0.16" stop-color="#2367B9"/>
<stop offset="0.17" stop-color="#2567B8"/>
<stop offset="0.18" stop-color="#2765B7"/>
<stop offset="0.19" stop-color="#2964B7"/>
<stop offset="0.2" stop-color="#2C63B6"/>
<stop offset="0.21" stop-color="#2E61B5"/>
<stop offset="0.22" stop-color="#3061B5"/>
<stop offset="0.23" stop-color="#325FB4"/>
<stop offset="0.24" stop-color="#345EB3"/>
<stop offset="0.25" stop-color="#365DB3"/>
<stop offset="0.26" stop-color="#385CB2"/>
<stop offset="0.27" stop-color="#3B5AB1"/>
<stop offset="0.28" stop-color="#3C5AB1"/>
<stop offset="0.29" stop-color="#3F58B0"/>
<stop offset="0.3" stop-color="#4157AF"/>
<stop offset="0.31" stop-color="#4356AF"/>
<stop offset="0.32" stop-color="#4654AE"/>
<stop offset="0.33" stop-color="#4753AD"/>
<stop offset="0.34" stop-color="#4A52AC"/>
<stop offset="0.35" stop-color="#4C51AC"/>
<stop offset="0.36" stop-color="#4E50AB"/>
<stop offset="0.37" stop-color="#504FAA"/>
<stop offset="0.38" stop-color="#524DAA"/>
<stop offset="0.39" stop-color="#554CA9"/>
<stop offset="0.4" stop-color="#564BA8"/>
<stop offset="0.41" stop-color="#594AA7"/>
<stop offset="0.42" stop-color="#5B49A7"/>
<stop offset="0.43" stop-color="#5D47A6"/>
<stop offset="0.44" stop-color="#5F46A6"/>
<stop offset="0.45" stop-color="#6145A5"/>
<stop offset="0.46" stop-color="#6444A4"/>
<stop offset="0.47" stop-color="#6643A3"/>
<stop offset="0.48" stop-color="#6841A3"/>
<stop offset="0.49" stop-color="#6A40A2"/>
<stop offset="0.5" stop-color="#6C3FA1"/>
<stop offset="0.51" stop-color="#6E3EA1"/>
<stop offset="0.52" stop-color="#713DA0"/>
<stop offset="0.53" stop-color="#723C9F"/>
<stop offset="0.54" stop-color="#753A9F"/>
<stop offset="0.55" stop-color="#77399E"/>
<stop offset="0.56" stop-color="#79389D"/>
<stop offset="0.57" stop-color="#7B379C"/>
<stop offset="0.58" stop-color="#7D369C"/>
<stop offset="0.59" stop-color="#80349B"/>
<stop offset="0.6" stop-color="#81339B"/>
<stop offset="0.61" stop-color="#84329A"/>
<stop offset="0.62" stop-color="#863199"/>
<stop offset="0.63" stop-color="#883098"/>
<stop offset="0.64" stop-color="#8B2E98"/>
<stop offset="0.65" stop-color="#8C2D97"/>
<stop offset="0.66" stop-color="#8F2C96"/>
<stop offset="0.67" stop-color="#902B96"/>
<stop offset="0.68" stop-color="#932A95"/>
<stop offset="0.69" stop-color="#952994"/>
<stop offset="0.7" stop-color="#972793"/>
<stop offset="0.71" stop-color="#9A2693"/>
<stop offset="0.72" stop-color="#9B2592"/>
<stop offset="0.73" stop-color="#9E2491"/>
<stop offset="0.74" stop-color="#A02391"/>
<stop offset="0.75" stop-color="#A22190"/>
<stop offset="0.76" stop-color="#A4208F"/>
<stop offset="0.77" stop-color="#A61F8F"/>
<stop offset="0.78" stop-color="#A81E8E"/>
<stop offset="0.79" stop-color="#AB1D8D"/>
<stop offset="0.8" stop-color="#AD1B8C"/>
<stop offset="0.81" stop-color="#AF1A8C"/>
<stop offset="0.82" stop-color="#B1198B"/>
<stop offset="0.83" stop-color="#B3188B"/>
<stop offset="0.84" stop-color="#B5178A"/>
<stop offset="0.85" stop-color="#B71689"/>
<stop offset="0.86" stop-color="#BA1488"/>
<stop offset="0.87" stop-color="#BB1388"/>
<stop offset="0.88" stop-color="#BE1287"/>
<stop offset="0.89" stop-color="#C01186"/>
<stop offset="0.9" stop-color="#C21086"/>
<stop offset="0.91" stop-color="#C50E85"/>
<stop offset="0.92" stop-color="#C60D84"/>
<stop offset="0.93" stop-color="#C90C84"/>
<stop offset="0.94" stop-color="#CA0B83"/>
<stop offset="0.95" stop-color="#CD0A82"/>
<stop offset="0.96" stop-color="#D00881"/>
<stop offset="0.97" stop-color="#D10781"/>
<stop offset="0.98" stop-color="#D40680"/>
<stop offset="0.99" stop-color="#D5057F"/>
<stop offset="1" stop-color="#D7047F"/>
</linearGradient>
<linearGradient id="paint1_linear_310_702" x1="15.3589" y1="77.2843" x2="78.7393" y2="77.2843" gradientUnits="userSpaceOnUse">
<stop stop-color="#017AC4"/>
<stop offset="0.01" stop-color="#027AC3"/>
<stop offset="0.02" stop-color="#0578C3"/>
<stop offset="0.03" stop-color="#0777C2"/>
<stop offset="0.04" stop-color="#0976C1"/>
<stop offset="0.05" stop-color="#0C75C0"/>
<stop offset="0.06" stop-color="#0D74C0"/>
<stop offset="0.07" stop-color="#1072BF"/>
<stop offset="0.08" stop-color="#1171BE"/>
<stop offset="0.09" stop-color="#1470BE"/>
<stop offset="0.1" stop-color="#166FBD"/>
<stop offset="0.11" stop-color="#186EBC"/>
<stop offset="0.12" stop-color="#1A6DBC"/>
<stop offset="0.13" stop-color="#1C6BBB"/>
<stop offset="0.14" stop-color="#1F6ABA"/>
<stop offset="0.15" stop-color="#2169BA"/>
<stop offset="0.16" stop-color="#2367B9"/>
<stop offset="0.17" stop-color="#2567B8"/>
<stop offset="0.18" stop-color="#2765B7"/>
<stop offset="0.19" stop-color="#2964B7"/>
<stop offset="0.2" stop-color="#2C63B6"/>
<stop offset="0.21" stop-color="#2E61B5"/>
<stop offset="0.22" stop-color="#3061B5"/>
<stop offset="0.23" stop-color="#325FB4"/>
<stop offset="0.24" stop-color="#345EB3"/>
<stop offset="0.25" stop-color="#365DB3"/>
<stop offset="0.26" stop-color="#385CB2"/>
<stop offset="0.27" stop-color="#3B5AB1"/>
<stop offset="0.28" stop-color="#3C5AB1"/>
<stop offset="0.29" stop-color="#3F58B0"/>
<stop offset="0.3" stop-color="#4157AF"/>
<stop offset="0.31" stop-color="#4356AF"/>
<stop offset="0.32" stop-color="#4654AE"/>
<stop offset="0.33" stop-color="#4753AD"/>
<stop offset="0.34" stop-color="#4A52AC"/>
<stop offset="0.35" stop-color="#4C51AC"/>
<stop offset="0.36" stop-color="#4E50AB"/>
<stop offset="0.37" stop-color="#504FAA"/>
<stop offset="0.38" stop-color="#524DAA"/>
<stop offset="0.39" stop-color="#554CA9"/>
<stop offset="0.4" stop-color="#564BA8"/>
<stop offset="0.41" stop-color="#594AA7"/>
<stop offset="0.42" stop-color="#5B49A7"/>
<stop offset="0.43" stop-color="#5D47A6"/>
<stop offset="0.44" stop-color="#5F46A6"/>
<stop offset="0.45" stop-color="#6145A5"/>
<stop offset="0.46" stop-color="#6444A4"/>
<stop offset="0.47" stop-color="#6643A3"/>
<stop offset="0.48" stop-color="#6841A3"/>
<stop offset="0.49" stop-color="#6A40A2"/>
<stop offset="0.5" stop-color="#6C3FA1"/>
<stop offset="0.51" stop-color="#6E3EA1"/>
<stop offset="0.52" stop-color="#713DA0"/>
<stop offset="0.53" stop-color="#723C9F"/>
<stop offset="0.54" stop-color="#753A9F"/>
<stop offset="0.55" stop-color="#77399E"/>
<stop offset="0.56" stop-color="#79389D"/>
<stop offset="0.57" stop-color="#7B379C"/>
<stop offset="0.58" stop-color="#7D369C"/>
<stop offset="0.59" stop-color="#80349B"/>
<stop offset="0.6" stop-color="#81339B"/>
<stop offset="0.61" stop-color="#84329A"/>
<stop offset="0.62" stop-color="#863199"/>
<stop offset="0.63" stop-color="#883098"/>
<stop offset="0.64" stop-color="#8B2E98"/>
<stop offset="0.65" stop-color="#8C2D97"/>
<stop offset="0.66" stop-color="#8F2C96"/>
<stop offset="0.67" stop-color="#902B96"/>
<stop offset="0.68" stop-color="#932A95"/>
<stop offset="0.69" stop-color="#952994"/>
<stop offset="0.7" stop-color="#972793"/>
<stop offset="0.71" stop-color="#9A2693"/>
<stop offset="0.72" stop-color="#9B2592"/>
<stop offset="0.73" stop-color="#9E2491"/>
<stop offset="0.74" stop-color="#A02391"/>
<stop offset="0.75" stop-color="#A22190"/>
<stop offset="0.76" stop-color="#A4208F"/>
<stop offset="0.77" stop-color="#A61F8F"/>
<stop offset="0.78" stop-color="#A81E8E"/>
<stop offset="0.79" stop-color="#AB1D8D"/>
<stop offset="0.8" stop-color="#AD1B8C"/>
<stop offset="0.81" stop-color="#AF1A8C"/>
<stop offset="0.82" stop-color="#B1198B"/>
<stop offset="0.83" stop-color="#B3188B"/>
<stop offset="0.84" stop-color="#B5178A"/>
<stop offset="0.85" stop-color="#B71689"/>
<stop offset="0.86" stop-color="#BA1488"/>
<stop offset="0.87" stop-color="#BB1388"/>
<stop offset="0.88" stop-color="#BE1287"/>
<stop offset="0.89" stop-color="#C01186"/>
<stop offset="0.9" stop-color="#C21086"/>
<stop offset="0.91" stop-color="#C50E85"/>
<stop offset="0.92" stop-color="#C60D84"/>
<stop offset="0.93" stop-color="#C90C84"/>
<stop offset="0.94" stop-color="#CA0B83"/>
<stop offset="0.95" stop-color="#CD0A82"/>
<stop offset="0.96" stop-color="#D00881"/>
<stop offset="0.97" stop-color="#D10781"/>
<stop offset="0.98" stop-color="#D40680"/>
<stop offset="0.99" stop-color="#D5057F"/>
<stop offset="1" stop-color="#D7047F"/>
</linearGradient>
<linearGradient id="paint2_linear_310_702" x1="70.0819" y1="32.907" x2="83.5097" y2="32.907" gradientUnits="userSpaceOnUse">
<stop stop-color="#611D27"/>
<stop offset="0.61" stop-color="#641F27"/>
<stop offset="1" stop-color="#BF5726"/>
</linearGradient>
<linearGradient id="paint3_linear_310_702" x1="71.3576" y1="34.1519" x2="82.4559" y2="34.1519" gradientUnits="userSpaceOnUse">
<stop stop-color="#611D27"/>
<stop offset="0.61" stop-color="#641F27"/>
<stop offset="1" stop-color="#BF5726"/>
</linearGradient>
<linearGradient id="paint4_linear_310_702" x1="71.7841" y1="30.5506" x2="72.896" y2="30.5506" gradientUnits="userSpaceOnUse">
<stop stop-color="#611D27"/>
<stop offset="0.61" stop-color="#641F27"/>
</linearGradient>
<linearGradient id="paint5_linear_310_702" x1="72.8216" y1="30.1617" x2="73.1627" y2="30.1617" gradientUnits="userSpaceOnUse">
<stop stop-color="#611D27"/>
<stop offset="0.61" stop-color="#641F27"/>
</linearGradient>
<linearGradient id="paint6_linear_310_702" x1="30.0615" y1="86.4551" x2="65.2937" y2="86.4551" gradientUnits="userSpaceOnUse">
<stop stop-color="#4B76BA"/>
<stop offset="0.52" stop-color="#5AC5F1"/>
<stop offset="0.9" stop-color="#4B76BA"/>
</linearGradient>
<linearGradient id="paint7_linear_310_702" x1="48.7383" y1="61.0231" x2="79.1785" y2="61.0231" gradientUnits="userSpaceOnUse">
<stop stop-color="#4B76BA"/>
<stop offset="0.52" stop-color="#5AC5F1"/>
<stop offset="0.9" stop-color="#4B76BA"/>
</linearGradient>
<linearGradient id="paint8_linear_310_702" x1="78.1416" y1="44.8267" x2="106.157" y2="44.8267" gradientUnits="userSpaceOnUse">
<stop stop-color="#4B76BA"/>
<stop offset="0.52" stop-color="#5AC5F1"/>
<stop offset="0.9" stop-color="#4B76BA"/>
</linearGradient>
<linearGradient id="paint9_linear_310_702" x1="28.6631" y1="100.922" x2="50.7813" y2="100.922" gradientUnits="userSpaceOnUse">
<stop stop-color="#4B3C8F"/>
<stop offset="0.52" stop-color="#7747A8" stop-opacity="0.8"/>
<stop offset="0.9" stop-color="#662384"/>
</linearGradient>
<linearGradient id="paint10_linear_310_702" x1="47.8682" y1="71.9025" x2="66.7701" y2="71.9025" gradientUnits="userSpaceOnUse">
<stop stop-color="#4B3C8F"/>
<stop offset="0.52" stop-color="#7747A8" stop-opacity="0.8"/>
<stop offset="0.9" stop-color="#662384"/>
</linearGradient>
<linearGradient id="paint11_linear_310_702" x1="14.7432" y1="89.6064" x2="56.592" y2="89.6064" gradientUnits="userSpaceOnUse">
<stop stop-color="#4B76BA"/>
<stop offset="0.52" stop-color="#5AC5F1"/>
<stop offset="0.9" stop-color="#4B76BA"/>
</linearGradient>
<linearGradient id="paint12_linear_310_702" x1="11.2031" y1="108.893" x2="34.5798" y2="108.893" gradientUnits="userSpaceOnUse">
<stop stop-color="#4B3C8F"/>
<stop offset="0.52" stop-color="#7747A8" stop-opacity="0.8"/>
<stop offset="0.9" stop-color="#662384"/>
</linearGradient>
<linearGradient id="paint13_linear_310_702" x1="76.9072" y1="30.4037" x2="83.9298" y2="30.4037" gradientUnits="userSpaceOnUse">
<stop stop-color="#611D27"/>
<stop offset="1" stop-color="#BF5726"/>
</linearGradient>
<linearGradient id="paint14_linear_310_702" x1="76.8559" y1="28.1086" x2="80.5019" y2="28.1086" gradientUnits="userSpaceOnUse">
<stop stop-color="#611D27"/>
<stop offset="0.61" stop-color="#641F27"/>
<stop offset="1" stop-color="#BF5726"/>
</linearGradient>
<linearGradient id="paint15_linear_310_702" x1="97.8311" y1="34.8919" x2="106.156" y2="34.8919" gradientUnits="userSpaceOnUse">
<stop stop-color="#4B3C8F"/>
<stop offset="0.52" stop-color="#7747A8" stop-opacity="0.8"/>
<stop offset="0.9" stop-color="#662384"/>
</linearGradient>
<linearGradient id="paint16_linear_310_702" x1="44.0617" y1="54.9797" x2="69.5258" y2="54.9797" gradientUnits="userSpaceOnUse">
<stop stop-color="#4B76BA"/>
<stop offset="0.52" stop-color="#5AC5F1"/>
<stop offset="0.9" stop-color="#4B76BA"/>
</linearGradient>
<linearGradient id="paint17_linear_310_702" x1="45.5732" y1="57.5035" x2="51.3612" y2="57.5035" gradientUnits="userSpaceOnUse">
<stop stop-color="#4B3C8F"/>
<stop offset="0.52" stop-color="#7747A8" stop-opacity="0.8"/>
<stop offset="0.9" stop-color="#662384"/>
</linearGradient>
<linearGradient id="paint18_linear_310_702" x1="50.0371" y1="69.5117" x2="67.6362" y2="69.5117" gradientUnits="userSpaceOnUse">
<stop stop-color="#4B3C8F"/>
<stop offset="0.52" stop-color="#7747A8" stop-opacity="0.8"/>
<stop offset="0.9" stop-color="#662384"/>
</linearGradient>
</defs>
</svg>
